  0
SECTION
  2
HEADER
  9
$ACADVER
  1
AC1014
  9
$HANDSEED
  5
FFFF
  9
$MEASUREMENT
 70
     1
  0
ENDSEC
  0
SECTION
  2
TABLES
  0
TABLE
  2
VPORT
  5
8
330
0
100
AcDbSymbolTable
 70
     4
  0
VPORT
  5
2E
330
8
100
AcDbSymbolTableRecord
100
AcDbViewportTableRecord
  2
*ACTIVE
 70
     0
 10
0.0
 20
0.0
 11
1.0
 21
1.0
 12
210.0
 22
148.5
 13
0.0
 23
0.0
 14
10.0
 24
10.0
 15
10.0
 25
10.0
 16
0.0
 26
0.0
 36
1.0
 17
0.0
 27
0.0
 37
0.0
 40
341.0
 41
1.24
 42
50.0
 43
0.0
 44
0.0
 50
0.0
 51
0.0
 71
     0
 72
   100
 73
     1
 74
     3
 75
     0
 76
     0
 77
     0
 78
     0
  0
ENDTAB
  0
TABLE
  2
LTYPE
  5
5
330
0
100
AcDbSymbolTable
 70
     1
  0
LTYPE
  5
14
330
5
100
AcDbSymbolTableRecord
100
AcDbLinetypeTableRecord
  2
BYBLOCK
 70
     0
  3

 72
    65
 73
     0
 40
0.0
  0
LTYPE
  5
15
330
5
100
AcDbSymbolTableRecord
100
AcDbLinetypeTableRecord
  2
BYLAYER
 70
     0
  3

 72
    65
 73
     0
 40
0.0
  0
LTYPE
  5
16
330
5
100
AcDbSymbolTableRecord
100
AcDbLinetypeTableRecord
  2
CONTINUOUS
 70
     0
  3
Solid line
 72
    65
 73
     0
 40
0.0
  0
ENDTAB
  0
TABLE
  2
LAYER
  5
2
100
AcDbSymbolTable
 70
2
  0
LAYER
  5
50
100
AcDbSymbolTableRecord
100
AcDbLayerTableRecord
  2
0
 70
0
  6
CONTINUOUS
  0
LAYER
  5
51
100
AcDbSymbolTableRecord
100
AcDbLayerTableRecord
  2
Layer_1
 70
0
  6
CONTINUOUS
  0
ENDTAB
  0
TABLE
  2
STYLE
  5
3
330
0
100
AcDbSymbolTable
 70
     1
  0
STYLE
  5
11
330
3
100
AcDbSymbolTableRecord
100
AcDbTextStyleTableRecord
  2
STANDARD
 70
     0
 40
0.0
 41
1.0
 50
0.0
 71
     0
 42
2.5
  3
txt
  4

  0
ENDTAB
  0
TABLE
  2
VIEW
  5
6
330
0
100
AcDbSymbolTable
 70
     0
  0
ENDTAB
  0
TABLE
  2
UCS
  5
7
330
0
100
AcDbSymbolTable
 70
     0
  0
ENDTAB
  0
TABLE
  2
APPID
  5
9
330
0
100
AcDbSymbolTable
 70
     2
  0
APPID
  5
12
330
9
100
AcDbSymbolTableRecord
100
AcDbRegAppTableRecord
  2
ACAD
 70
     0
  0
ENDTAB
  0
TABLE
  2
DIMSTYLE
  5
A
330
0
100
AcDbSymbolTable
 70
     1
  0
DIMSTYLE
105
27
330
A
100
AcDbSymbolTableRecord
100
AcDbDimStyleTableRecord
  2
ISO-25
 70
     0
  3

  4

  5

  6

  7

 40
1.0
 41
2.5
 42
0.625
 43
3.75
 44
1.25
 45
0.0
 46
0.0
 47
0.0
 48
0.0
140
2.5
141
2.5
142
0.0
143
0.03937007874016
144
1.0
145
0.0
146
1.0
147
0.625
 71
     0
 72
     0
 73
     0
 74
     0
 75
     0
 76
     0
 77
     1
 78
     8
170
     0
171
     3
172
     1
173
     0
174
     0
175
     0
176
     0
177
     0
178
     0
270
     2
271
     2
272
     2
273
     2
274
     3
340
11
275
     0
280
     0
281
     0
282
     0
283
     0
284
     8
285
     0
286
     0
287
     3
288
     0
  0
ENDTAB
  0
TABLE
  2
BLOCK_RECORD
  5
1
330
0
100
AcDbSymbolTable
 70
     1
  0
BLOCK_RECORD
  5
1F
330
1
100
AcDbSymbolTableRecord
100
AcDbBlockTableRecord
  2
*MODEL_SPACE
  0
BLOCK_RECORD
  5
1B
330
1
100
AcDbSymbolTableRecord
100
AcDbBlockTableRecord
  2
*PAPER_SPACE
  0
ENDTAB
  0
ENDSEC
  0
SECTION
  2
BLOCKS
  0
BLOCK
  5
20
330
1F
100
AcDbEntity
  8
0
100
AcDbBlockBegin
  2
*MODEL_SPACE
 70
     0
 10
0.0
 20
0.0
 30
0.0
  3
*MODEL_SPACE
  1

  0
ENDBLK
  5
21
330
1F
100
AcDbEntity
  8
0
100
AcDbBlockEnd
  0
BLOCK
  5
1C
330
1B
100
AcDbEntity
 67
     1
  8
0
100
AcDbBlockBegin
  2
*PAPER_SPACE
  1

  0
ENDBLK
  5
1D
330
1B
100
AcDbEntity
 67
     1
  8
0
100
AcDbBlockEnd
  0
ENDSEC
  0
SECTION
  2
ENTITIES
  0
LWPOLYLINE
  5
100
100
AcDbEntity
  8
Layer_1
 62
7
100
AcDbPolyline
 90
5
 70
0
 10
0.398874
 20
283.065692
 30
0.0
 10
283.065698
 20
283.065692
 30
0.0
 10
283.065698
 20
0.398868
 30
0.0
 10
0.398874
 20
0.398868
 30
0.0
 10
0.398874
 20
283.065692
 30
0.0
  0
LWPOLYLINE
  5
101
100
AcDbEntity
  8
Layer_1
 62
7
100
AcDbPolyline
 90
5
 70
0
 10
142.133960
 20
70.644500
 30
0.0
 10
143.173118
 20
70.644500
 30
0.0
 10
143.173118
 20
0.401684
 30
0.0
 10
142.133960
 20
0.401684
 30
0.0
 10
142.133960
 20
70.644500
 30
0.0
  0
LWPOLYLINE
  5
102
100
AcDbEntity
  8
Layer_1
 62
7
100
AcDbPolyline
 90
5
 70
0
 10
142.133960
 20
283.242940
 30
0.0
 10
143.173118
 20
283.242940
 30
0.0
 10
143.173118
 20
213.000124
 30
0.0
 10
142.133960
 20
213.000124
 30
0.0
 10
142.133960
 20
283.242940
 30
0.0
  0
LWPOLYLINE
  5
103
100
AcDbEntity
  8
Layer_1
 62
7
100
AcDbPolyline
 90
5
 70
0
 10
70.644494
 20
143.173164
 30
0.0
 10
70.644494
 20
142.134006
 30
0.0
 10
0.401678
 20
142.134006
 30
0.0
 10
0.401678
 20
143.173164
 30
0.0
 10
70.644494
 20
143.173164
 30
0.0
  0
SPLINE
  5
104
100
AcDbEntity
  8
Layer_1
 62
7
100
AcDbSpline
 70
8
 71
3
 72
8
 73
4
 74
0
 40
0
 40
0
 40
0
 40
0
 40
1
 40
1
 40
1
 40
1
 10
283.061576
 20
0.403044
 30
0.0
 10
0.402996
 20
283.061636
 30
0.0
 10
0.402996
 20
283.061636
 30
0.0
 10
0.402996
 20
283.061636
 30
0.0
  0
LWPOLYLINE
  5
105
100
AcDbEntity
  8
Layer_1
 62
7
100
AcDbPolyline
 90
5
 70
0
 10
283.242920
 20
143.173164
 30
0.0
 10
283.242920
 20
142.134006
 30
0.0
 10
213.000104
 20
142.134006
 30
0.0
 10
213.000104
 20
143.173164
 30
0.0
 10
283.242920
 20
143.173164
 30
0.0
  0
SPLINE
  5
106
100
AcDbEntity
  8
Layer_1
 62
7
100
AcDbSpline
 70
8
 71
3
 72
8
 73
4
 74
0
 40
0
 40
0
 40
0
 40
0
 40
1
 40
1
 40
1
 40
1
 10
26.586963
 20
9.921279
 30
0.0
 10
26.587274
 20
9.030596
 30
0.0
 10
26.112279
 20
8.207438
 30
0.0
 10
25.340977
 20
7.762007
 30
0.0
  0
SPLINE
  5
107
100
AcDbEntity
  8
Layer_1
 62
7
100
AcDbSpline
 70
8
 71
3
 72
8
 73
4
 74
0
 40
0
 40
0
 40
0
 40
0
 40
1
 40
1
 40
1
 40
1
 10
25.340977
 20
7.762007
 30
0.0
 10
24.569675
 20
7.316576
 30
0.0
 10
23.619301
 20
7.316576
 30
0.0
 10
22.847999
 20
7.762007
 30
0.0
  0
SPLINE
  5
108
100
AcDbEntity
  8
Layer_1
 62
7
100
AcDbSpline
 70
8
 71
3
 72
8
 73
4
 74
0
 40
0
 40
0
 40
0
 40
0
 40
1
 40
1
 40
1
 40
1
 10
22.847999
 20
7.762007
 30
0.0
 10
22.076697
 20
8.207438
 30
0.0
 10
21.601702
 20
9.030596
 30
0.0
 10
21.602013
 20
9.921279
 30
0.0
  0
SPLINE
  5
109
100
AcDbEntity
  8
Layer_1
 62
7
100
AcDbSpline
 70
8
 71
3
 72
8
 73
4
 74
0
 40
0
 40
0
 40
0
 40
0
 40
1
 40
1
 40
1
 40
1
 10
21.602013
 20
9.921279
 30
0.0
 10
21.601702
 20
10.811962
 30
0.0
 10
22.076697
 20
11.635120
 30
0.0
 10
22.847999
 20
12.080551
 30
0.0
  0
SPLINE
  5
10a
100
AcDbEntity
  8
Layer_1
 62
7
100
AcDbSpline
 70
8
 71
3
 72
8
 73
4
 74
0
 40
0
 40
0
 40
0
 40
0
 40
1
 40
1
 40
1
 40
1
 10
22.847999
 20
12.080551
 30
0.0
 10
23.619301
 20
12.525982
 30
0.0
 10
24.569675
 20
12.525982
 30
0.0
 10
25.340977
 20
12.080551
 30
0.0
  0
SPLINE
  5
10b
100
AcDbEntity
  8
Layer_1
 62
7
100
AcDbSpline
 70
8
 71
3
 72
8
 73
4
 74
0
 40
0
 40
0
 40
0
 40
0
 40
1
 40
1
 40
1
 40
1
 10
25.340977
 20
12.080551
 30
0.0
 10
26.112279
 20
11.635120
 30
0.0
 10
26.587274
 20
10.811962
 30
0.0
 10
26.586963
 20
9.921279
 30
0.0
  0
LWPOLYLINE
  5
10c
100
AcDbEntity
  8
Layer_1
 62
7
100
AcDbPolyline
 90
2
 70
0
 10
0.402628
 20
0.402644
 30
0.0
 10
141.329648
 20
141.329676
 30
0.0
  0
SPLINE
  5
10d
100
AcDbEntity
  8
Layer_1
 62
7
100
AcDbSpline
 70
8
 71
3
 72
8
 73
4
 74
0
 40
0
 40
0
 40
0
 40
0
 40
1
 40
1
 40
1
 40
1
 10
12.413735
 20
24.094503
 30
0.0
 10
12.414046
 20
23.203820
 30
0.0
 10
11.939051
 20
22.380662
 30
0.0
 10
11.167749
 20
21.935231
 30
0.0
  0
SPLINE
  5
10e
100
AcDbEntity
  8
Layer_1
 62
7
100
AcDbSpline
 70
8
 71
3
 72
8
 73
4
 74
0
 40
0
 40
0
 40
0
 40
0
 40
1
 40
1
 40
1
 40
1
 10
11.167749
 20
21.935231
 30
0.0
 10
10.396446
 20
21.489800
 30
0.0
 10
9.446073
 20
21.489800
 30
0.0
 10
8.674771
 20
21.935231
 30
0.0
  0
SPLINE
  5
10f
100
AcDbEntity
  8
Layer_1
 62
7
100
AcDbSpline
 70
8
 71
3
 72
8
 73
4
 74
0
 40
0
 40
0
 40
0
 40
0
 40
1
 40
1
 40
1
 40
1
 10
8.674771
 20
21.935231
 30
0.0
 10
7.903469
 20
22.380662
 30
0.0
 10
7.428474
 20
23.203820
 30
0.0
 10
7.428784
 20
24.094503
 30
0.0
  0
SPLINE
  5
110
100
AcDbEntity
  8
Layer_1
 62
7
100
AcDbSpline
 70
8
 71
3
 72
8
 73
4
 74
0
 40
0
 40
0
 40
0
 40
0
 40
1
 40
1
 40
1
 40
1
 10
7.428784
 20
24.094503
 30
0.0
 10
7.428474
 20
24.985186
 30
0.0
 10
7.903469
 20
25.808344
 30
0.0
 10
8.674771
 20
26.253775
 30
0.0
  0
SPLINE
  5
111
100
AcDbEntity
  8
Layer_1
 62
7
100
AcDbSpline
 70
8
 71
3
 72
8
 73
4
 74
0
 40
0
 40
0
 40
0
 40
0
 40
1
 40
1
 40
1
 40
1
 10
8.674771
 20
26.253775
 30
0.0
 10
9.446073
 20
26.699206
 30
0.0
 10
10.396446
 20
26.699206
 30
0.0
 10
11.167749
 20
26.253775
 30
0.0
  0
SPLINE
  5
112
100
AcDbEntity
  8
Layer_1
 62
7
100
AcDbSpline
 70
8
 71
3
 72
8
 73
4
 74
0
 40
0
 40
0
 40
0
 40
0
 40
1
 40
1
 40
1
 40
1
 10
11.167749
 20
26.253775
 30
0.0
 10
11.939051
 20
25.808344
 30
0.0
 10
12.414046
 20
24.985186
 30
0.0
 10
12.413735
 20
24.094503
 30
0.0
  0
LWPOLYLINE
  5
113
100
AcDbEntity
  8
Layer_1
 62
7
100
AcDbPolyline
 90
2
 70
0
 10
26.586963
 20
9.921279
 30
0.0
 10
26.586963
 20
9.921279
 30
0.0
  0
SPLINE
  5
114
100
AcDbEntity
  8
Layer_1
 62
7
100
AcDbSpline
 70
8
 71
3
 72
8
 73
4
 74
0
 40
0
 40
0
 40
0
 40
0
 40
1
 40
1
 40
1
 40
1
 10
255.460277
 20
9.921271
 30
0.0
 10
255.459966
 20
9.030588
 30
0.0
 10
255.934961
 20
8.207430
 30
0.0
 10
256.706263
 20
7.761999
 30
0.0
  0
SPLINE
  5
115
100
AcDbEntity
  8
Layer_1
 62
7
100
AcDbSpline
 70
8
 71
3
 72
8
 73
4
 74
0
 40
0
 40
0
 40
0
 40
0
 40
1
 40
1
 40
1
 40
1
 10
256.706263
 20
7.761999
 30
0.0
 10
257.477566
 20
7.316568
 30
0.0
 10
258.427939
 20
7.316568
 30
0.0
 10
259.199241
 20
7.761999
 30
0.0
  0
SPLINE
  5
116
100
AcDbEntity
  8
Layer_1
 62
7
100
AcDbSpline
 70
8
 71
3
 72
8
 73
4
 74
0
 40
0
 40
0
 40
0
 40
0
 40
1
 40
1
 40
1
 40
1
 10
259.199241
 20
7.761999
 30
0.0
 10
259.970543
 20
8.207430
 30
0.0
 10
260.445538
 20
9.030588
 30
0.0
 10
260.445228
 20
9.921271
 30
0.0
  0
SPLINE
  5
117
100
AcDbEntity
  8
Layer_1
 62
7
100
AcDbSpline
 70
8
 71
3
 72
8
 73
4
 74
0
 40
0
 40
0
 40
0
 40
0
 40
1
 40
1
 40
1
 40
1
 10
260.445228
 20
9.921271
 30
0.0
 10
260.445538
 20
10.811954
 30
0.0
 10
259.970543
 20
11.635112
 30
0.0
 10
259.199241
 20
12.080543
 30
0.0
  0
SPLINE
  5
118
100
AcDbEntity
  8
Layer_1
 62
7
100
AcDbSpline
 70
8
 71
3
 72
8
 73
4
 74
0
 40
0
 40
0
 40
0
 40
0
 40
1
 40
1
 40
1
 40
1
 10
259.199241
 20
12.080543
 30
0.0
 10
258.427939
 20
12.525974
 30
0.0
 10
257.477566
 20
12.525974
 30
0.0
 10
256.706263
 20
12.080543
 30
0.0
  0
SPLINE
  5
119
100
AcDbEntity
  8
Layer_1
 62
7
100
AcDbSpline
 70
8
 71
3
 72
8
 73
4
 74
0
 40
0
 40
0
 40
0
 40
0
 40
1
 40
1
 40
1
 40
1
 10
256.706263
 20
12.080543
 30
0.0
 10
255.934961
 20
11.635112
 30
0.0
 10
255.459966
 20
10.811954
 30
0.0
 10
255.460277
 20
9.921271
 30
0.0
  0
LWPOLYLINE
  5
11a
100
AcDbEntity
  8
Layer_1
 62
7
100
AcDbPolyline
 90
2
 70
0
 10
12.413735
 20
24.094503
 30
0.0
 10
12.413735
 20
24.094503
 30
0.0
  0
SPLINE
  5
11b
100
AcDbEntity
  8
Layer_1
 62
7
100
AcDbSpline
 70
8
 71
3
 72
8
 73
4
 74
0
 40
0
 40
0
 40
0
 40
0
 40
1
 40
1
 40
1
 40
1
 10
269.633509
 20
24.094551
 30
0.0
 10
269.633198
 20
23.203868
 30
0.0
 10
270.108193
 20
22.380710
 30
0.0
 10
270.879495
 20
21.935279
 30
0.0
  0
SPLINE
  5
11c
100
AcDbEntity
  8
Layer_1
 62
7
100
AcDbSpline
 70
8
 71
3
 72
8
 73
4
 74
0
 40
0
 40
0
 40
0
 40
0
 40
1
 40
1
 40
1
 40
1
 10
270.879495
 20
21.935279
 30
0.0
 10
271.650798
 20
21.489848
 30
0.0
 10
272.601171
 20
21.489848
 30
0.0
 10
273.372473
 20
21.935279
 30
0.0
  0
SPLINE
  5
11d
100
AcDbEntity
  8
Layer_1
 62
7
100
AcDbSpline
 70
8
 71
3
 72
8
 73
4
 74
0
 40
0
 40
0
 40
0
 40
0
 40
1
 40
1
 40
1
 40
1
 10
273.372473
 20
21.935279
 30
0.0
 10
274.143775
 20
22.380710
 30
0.0
 10
274.618770
 20
23.203868
 30
0.0
 10
274.618460
 20
24.094551
 30
0.0
  0
SPLINE
  5
11e
100
AcDbEntity
  8
Layer_1
 62
7
100
AcDbSpline
 70
8
 71
3
 72
8
 73
4
 74
0
 40
0
 40
0
 40
0
 40
0
 40
1
 40
1
 40
1
 40
1
 10
274.618460
 20
24.094551
 30
0.0
 10
274.618770
 20
24.985234
 30
0.0
 10
274.143775
 20
25.808392
 30
0.0
 10
273.372473
 20
26.253823
 30
0.0
  0
SPLINE
  5
11f
100
AcDbEntity
  8
Layer_1
 62
7
100
AcDbSpline
 70
8
 71
3
 72
8
 73
4
 74
0
 40
0
 40
0
 40
0
 40
0
 40
1
 40
1
 40
1
 40
1
 10
273.372473
 20
26.253823
 30
0.0
 10
272.601171
 20
26.699254
 30
0.0
 10
271.650798
 20
26.699254
 30
0.0
 10
270.879495
 20
26.253823
 30
0.0
  0
SPLINE
  5
120
100
AcDbEntity
  8
Layer_1
 62
7
100
AcDbSpline
 70
8
 71
3
 72
8
 73
4
 74
0
 40
0
 40
0
 40
0
 40
0
 40
1
 40
1
 40
1
 40
1
 10
270.879495
 20
26.253823
 30
0.0
 10
270.108193
 20
25.808392
 30
0.0
 10
269.633198
 20
24.985234
 30
0.0
 10
269.633509
 20
24.094551
 30
0.0
  0
LWPOLYLINE
  5
121
100
AcDbEntity
  8
Layer_1
 62
7
100
AcDbPolyline
 90
2
 70
0
 10
255.460277
 20
9.921271
 30
0.0
 10
255.460277
 20
9.921271
 30
0.0
  0
SPLINE
  5
122
100
AcDbEntity
  8
Layer_1
 62
7
100
AcDbSpline
 70
8
 71
3
 72
8
 73
4
 74
0
 40
0
 40
0
 40
0
 40
0
 40
1
 40
1
 40
1
 40
1
 10
269.633509
 20
272.126047
 30
0.0
 10
269.633198
 20
271.235364
 30
0.0
 10
270.108193
 20
270.412206
 30
0.0
 10
270.879495
 20
269.966775
 30
0.0
  0
SPLINE
  5
123
100
AcDbEntity
  8
Layer_1
 62
7
100
AcDbSpline
 70
8
 71
3
 72
8
 73
4
 74
0
 40
0
 40
0
 40
0
 40
0
 40
1
 40
1
 40
1
 40
1
 10
270.879495
 20
269.966775
 30
0.0
 10
271.650798
 20
269.521344
 30
0.0
 10
272.601171
 20
269.521344
 30
0.0
 10
273.372473
 20
269.966775
 30
0.0
  0
SPLINE
  5
124
100
AcDbEntity
  8
Layer_1
 62
7
100
AcDbSpline
 70
8
 71
3
 72
8
 73
4
 74
0
 40
0
 40
0
 40
0
 40
0
 40
1
 40
1
 40
1
 40
1
 10
273.372473
 20
269.966775
 30
0.0
 10
274.143775
 20
270.412206
 30
0.0
 10
274.618770
 20
271.235364
 30
0.0
 10
274.618460
 20
272.126047
 30
0.0
  0
SPLINE
  5
125
100
AcDbEntity
  8
Layer_1
 62
7
100
AcDbSpline
 70
8
 71
3
 72
8
 73
4
 74
0
 40
0
 40
0
 40
0
 40
0
 40
1
 40
1
 40
1
 40
1
 10
274.618460
 20
272.126047
 30
0.0
 10
274.618770
 20
273.016730
 30
0.0
 10
274.143775
 20
273.839888
 30
0.0
 10
273.372473
 20
274.285319
 30
0.0
  0
SPLINE
  5
126
100
AcDbEntity
  8
Layer_1
 62
7
100
AcDbSpline
 70
8
 71
3
 72
8
 73
4
 74
0
 40
0
 40
0
 40
0
 40
0
 40
1
 40
1
 40
1
 40
1
 10
273.372473
 20
274.285319
 30
0.0
 10
272.601171
 20
274.730750
 30
0.0
 10
271.650798
 20
274.730750
 30
0.0
 10
270.879495
 20
274.285319
 30
0.0
  0
SPLINE
  5
127
100
AcDbEntity
  8
Layer_1
 62
7
100
AcDbSpline
 70
8
 71
3
 72
8
 73
4
 74
0
 40
0
 40
0
 40
0
 40
0
 40
1
 40
1
 40
1
 40
1
 10
270.879495
 20
274.285319
 30
0.0
 10
270.108193
 20
273.839888
 30
0.0
 10
269.633198
 20
273.016730
 30
0.0
 10
269.633509
 20
272.126047
 30
0.0
  0
LWPOLYLINE
  5
128
100
AcDbEntity
  8
Layer_1
 62
7
100
AcDbPolyline
 90
2
 70
0
 10
269.633509
 20
24.094551
 30
0.0
 10
269.633509
 20
24.094551
 30
0.0
  0
SPLINE
  5
129
100
AcDbEntity
  8
Layer_1
 62
7
100
AcDbSpline
 70
8
 71
3
 72
8
 73
4
 74
0
 40
0
 40
0
 40
0
 40
0
 40
1
 40
1
 40
1
 40
1
 10
7.428785
 20
257.952767
 30
0.0
 10
7.428474
 20
257.062084
 30
0.0
 10
7.903469
 20
256.238926
 30
0.0
 10
8.674771
 20
255.793495
 30
0.0
  0
SPLINE
  5
12a
100
AcDbEntity
  8
Layer_1
 62
7
100
AcDbSpline
 70
8
 71
3
 72
8
 73
4
 74
0
 40
0
 40
0
 40
0
 40
0
 40
1
 40
1
 40
1
 40
1
 10
8.674771
 20
255.793495
 30
0.0
 10
9.446074
 20
255.348064
 30
0.0
 10
10.396447
 20
255.348064
 30
0.0
 10
11.167749
 20
255.793495
 30
0.0
  0
SPLINE
  5
12b
100
AcDbEntity
  8
Layer_1
 62
7
100
AcDbSpline
 70
8
 71
3
 72
8
 73
4
 74
0
 40
0
 40
0
 40
0
 40
0
 40
1
 40
1
 40
1
 40
1
 10
11.167749
 20
255.793495
 30
0.0
 10
11.939051
 20
256.238926
 30
0.0
 10
12.414046
 20
257.062084
 30
0.0
 10
12.413736
 20
257.952767
 30
0.0
  0
SPLINE
  5
12c
100
AcDbEntity
  8
Layer_1
 62
7
100
AcDbSpline
 70
8
 71
3
 72
8
 73
4
 74
0
 40
0
 40
0
 40
0
 40
0
 40
1
 40
1
 40
1
 40
1
 10
12.413736
 20
257.952767
 30
0.0
 10
12.414046
 20
258.843450
 30
0.0
 10
11.939051
 20
259.666608
 30
0.0
 10
11.167749
 20
260.112039
 30
0.0
  0
SPLINE
  5
12d
100
AcDbEntity
  8
Layer_1
 62
7
100
AcDbSpline
 70
8
 71
3
 72
8
 73
4
 74
0
 40
0
 40
0
 40
0
 40
0
 40
1
 40
1
 40
1
 40
1
 10
11.167749
 20
260.112039
 30
0.0
 10
10.396447
 20
260.557470
 30
0.0
 10
9.446074
 20
260.557470
 30
0.0
 10
8.674771
 20
260.112039
 30
0.0
  0
SPLINE
  5
12e
100
AcDbEntity
  8
Layer_1
 62
7
100
AcDbSpline
 70
8
 71
3
 72
8
 73
4
 74
0
 40
0
 40
0
 40
0
 40
0
 40
1
 40
1
 40
1
 40
1
 10
8.674771
 20
260.112039
 30
0.0
 10
7.903469
 20
259.666608
 30
0.0
 10
7.428474
 20
258.843450
 30
0.0
 10
7.428785
 20
257.952767
 30
0.0
  0
LWPOLYLINE
  5
12f
100
AcDbEntity
  8
Layer_1
 62
7
100
AcDbPolyline
 90
2
 70
0
 10
269.633509
 20
272.126047
 30
0.0
 10
269.633509
 20
272.126047
 30
0.0
  0
SPLINE
  5
130
100
AcDbEntity
  8
Layer_1
 62
7
100
AcDbSpline
 70
8
 71
3
 72
8
 73
4
 74
0
 40
0
 40
0
 40
0
 40
0
 40
1
 40
1
 40
1
 40
1
 10
21.602017
 20
272.126047
 30
0.0
 10
21.601706
 20
271.235364
 30
0.0
 10
22.076701
 20
270.412206
 30
0.0
 10
22.848003
 20
269.966775
 30
0.0
  0
SPLINE
  5
131
100
AcDbEntity
  8
Layer_1
 62
7
100
AcDbSpline
 70
8
 71
3
 72
8
 73
4
 74
0
 40
0
 40
0
 40
0
 40
0
 40
1
 40
1
 40
1
 40
1
 10
22.848003
 20
269.966775
 30
0.0
 10
23.619306
 20
269.521344
 30
0.0
 10
24.569679
 20
269.521344
 30
0.0
 10
25.340981
 20
269.966775
 30
0.0
  0
SPLINE
  5
132
100
AcDbEntity
  8
Layer_1
 62
7
100
AcDbSpline
 70
8
 71
3
 72
8
 73
4
 74
0
 40
0
 40
0
 40
0
 40
0
 40
1
 40
1
 40
1
 40
1
 10
25.340981
 20
269.966775
 30
0.0
 10
26.112283
 20
270.412206
 30
0.0
 10
26.587278
 20
271.235364
 30
0.0
 10
26.586968
 20
272.126047
 30
0.0
  0
SPLINE
  5
133
100
AcDbEntity
  8
Layer_1
 62
7
100
AcDbSpline
 70
8
 71
3
 72
8
 73
4
 74
0
 40
0
 40
0
 40
0
 40
0
 40
1
 40
1
 40
1
 40
1
 10
26.586968
 20
272.126047
 30
0.0
 10
26.587278
 20
273.016730
 30
0.0
 10
26.112283
 20
273.839888
 30
0.0
 10
25.340981
 20
274.285319
 30
0.0
  0
SPLINE
  5
134
100
AcDbEntity
  8
Layer_1
 62
7
100
AcDbSpline
 70
8
 71
3
 72
8
 73
4
 74
0
 40
0
 40
0
 40
0
 40
0
 40
1
 40
1
 40
1
 40
1
 10
25.340981
 20
274.285319
 30
0.0
 10
24.569679
 20
274.730750
 30
0.0
 10
23.619306
 20
274.730750
 30
0.0
 10
22.848003
 20
274.285319
 30
0.0
  0
SPLINE
  5
135
100
AcDbEntity
  8
Layer_1
 62
7
100
AcDbSpline
 70
8
 71
3
 72
8
 73
4
 74
0
 40
0
 40
0
 40
0
 40
0
 40
1
 40
1
 40
1
 40
1
 10
22.848003
 20
274.285319
 30
0.0
 10
22.076701
 20
273.839888
 30
0.0
 10
21.601706
 20
273.016730
 30
0.0
 10
21.602017
 20
272.126047
 30
0.0
  0
LWPOLYLINE
  5
136
100
AcDbEntity
  8
Layer_1
 62
7
100
AcDbPolyline
 90
2
 70
0
 10
7.428785
 20
257.952767
 30
0.0
 10
7.428785
 20
257.952767
 30
0.0
  0
LWPOLYLINE
  5
137
100
AcDbEntity
  8
Layer_1
 62
7
100
AcDbPolyline
 90
2
 70
0
 10
21.602017
 20
272.126047
 30
0.0
 10
21.602017
 20
272.126047
 30
0.0
  0
ENDSEC
  0
SECTION
  2
OBJECTS
  0
DICTIONARY
  5
C
330
0
100
AcDbDictionary
  3
ACAD_GROUP
350
D
  3
ACAD_MLINESTYLE
350
17
  0
DICTIONARY
  5
D
330
C
100
AcDbDictionary
  0
DICTIONARY
  5
1A
330
C
100
AcDbDictionary
  0
DICTIONARY
  5
17
330
C
100
AcDbDictionary
  3
STANDARD
350
18
  0
DICTIONARY
  5
19
330
C
100
AcDbDictionary
  0
ENDSEC
  0
EOF
