<?xml version="1.0" encoding="ISO-8859-1"?>
<svg version="1.1" width="210.0px" height="297.0px" style="fill:rgb(0,0,0)" xmlns="http://www.w3.org/2000/svg"><skchptrn version="0.9" width="210.0px" height="297.0px" scale="1.0" mm_px="1" designID="0" notes="" materialWidth="" dogbonesAdded="" user="" xmlns="http://www.sketchchair.cc/formats/skchptrn"/><g id="pages"><g id="page"><g id="shapes"><g id="shape"><g id="outlines"><path d="M 98.00264,24.257647 C 98.00264,22.206854 95.00285,20.084127 94.538376,20.43795 C 93.39266,21.756731 62.19381,27.101929 55.786877,27.27586 C 51.33479,27.400772 47.084118,25.968784 47.084118,25.968784 C 47.084118,25.968784 47.08087,25.975803 47.07463,25.98936 C 36.22371,22.260864 15.523251,15.147959 15.523251,15.147959 C 15.523251,15.147959 15.523251,19.094955 15.523251,19.094955 C 15.523251,19.094955 34.69974,26.706223 45.09647,30.832748 C 47.3802,31.870869 49.559128,32.47269 51.300354,34.81561 C 52.7134,36.70374 53.773266,47.31234 53.773266,55.188976 C 53.773266,59.02586 53.521774,62.21448 52.937107,63.431072 C 51.826206,65.65784 49.934166,66.65526 47.7823,67.274704 C 37.75174,69.39531 14.852039,74.23664 14.852039,74.23664 C 14.852039,74.23664 14.852039,78.00263 14.852039,78.00263 C 14.852039,78.00263 32.403023,75.16074 43.82362,73.31151 C 43.826843,73.329025 43.828526,73.33818 43.828526,73.33818 C 43.828526,73.33818 51.88054,72.30998 51.88054,72.30998 C 51.88054,72.30998 56.163475,71.94736 57.543198,71.340866 C 59.166992,70.586716 59.598633,69.322784 59.814354,68.35181 C 59.814354,68.35181 37.508583,72.50821 37.508583,72.50821 L 37.288765,71.32851 C 37.288765,71.32851 59.83534,67.12724 59.83534,67.12724 C 59.832592,67.1124 59.83115,67.09708 59.83115,67.081436 C 59.83115,66.94336 59.943077,66.831436 60.08115,66.831436 C 60.08452,66.831436 60.087864,66.8315 60.09121,66.831635 C 60.126133,66.482864 60.142296,66.10446 60.142296,65.69916 C 60.142296,64.84235 60.07007,63.865276 59.95022,62.79379 C 59.939648,62.769985 59.93268,62.744244 59.930004,62.717228 C 59.930004,62.717228 56.578964,63.052258 56.578964,63.052258 L 56.45958,61.85821 C 56.45958,61.85821 59.79326,61.524914 59.79326,61.524914 C 59.592735,60.0276 59.32628,58.38438 59.049694,56.653767 C 59.049694,56.653767 56.450718,57.072567 56.450718,57.072567 L 56.2598,55.88786 C 56.2598,55.88786 58.859703,55.4689 58.859703,55.4689 C 58.85814,55.45914 58.85714,55.449184 58.85675,55.439083 C 58.613876,53.896214 58.37312,52.297085 58.17153,50.68058 C 58.17153,50.68058 55.959812,50.959362 55.959812,50.959362 L 55.80974,49.76878 C 55.80974,49.76878 58.02413,49.489662 58.02413,49.489662 C 58.02285,49.47942 58.02219,49.468983 58.02219,49.458393 C 58.02219,49.447952 58.022827,49.43766 58.02407,49.42756 C 57.848755,47.837315 57.720238,46.24001 57.6734,44.672222 C 57.6734,44.672222 55.512512,44.88306 55.512512,44.88306 L 55.39598,43.688732 C 55.39598,43.688732 57.601196,43.473568 57.601196,43.473568 C 57.600426,43.46558 57.600037,43.457478 57.600037,43.44929 C 57.600037,43.390568 57.620274,43.336582 57.65416,43.29392 C 57.65847,41.769398 57.752075,40.284008 57.968334,38.872746 C 57.968334,38.872746 55.166588,38.707745 55.166588,38.707745 L 55.237144,37.509815 C 55.237144,37.509815 58.10299,37.6786 58.10299,37.6786 C 58.108032,37.591534 58.15764,37.516422 58.229332,37.475727 C 58.340782,36.975666 58.470383,36.487263 58.619835,36.012268 C 58.90387,35.184338 59.13081,34.54425 59.437595,33.99039 C 59.437595,33.99039 37.437542,25.859905 37.437542,25.859905 L 37.853546,24.734314 C 37.853546,24.734314 59.97573,32.909935 59.97573,32.909935 C 60.01097,32.81459 60.102695,32.74662 60.21029,32.74662 C 60.26987,32.74662 60.324596,32.767467 60.36754,32.802265 C 60.75979,32.43578 61.260387,32.073284 61.929844,31.669876 C 62.122337,31.542645 62.355114,31.419163 62.624695,31.299198 C 62.645554,31.201378 62.723633,31.124737 62.822216,31.105991 C 62.822216,31.105991 62.39913,28.89507 62.39913,28.89507 L 63.577744,28.669533 C 63.577744,28.669533 63.987034,30.808403 63.987034,30.808403 C 65.61229,30.3196 67.86177,29.893372 70.43357,29.509892 C 70.43357,29.509892 70.11182,27.513084 70.11182,27.513084 L 71.29653,27.322186 C 71.29653,27.322186 71.619644,29.32743 71.619644,29.32743 C 71.63261,29.32536 71.64589,29.324284 71.659424,29.324284 C 71.67357,29.324284 71.68744,29.325459 71.70095,29.327717 C 73.76436,29.041378 75.991455,28.778694 78.24259,28.53049 C 78.24259,28.53049 77.88507,26.388676 77.88507,26.388676 L 79.06869,26.191103 C 79.06869,26.191103 79.43176,28.366186 79.43176,28.366186 C 79.44515,28.363966 79.4589,28.362814 79.47292,28.362814 C 79.50989,28.362814 79.54497,28.370832 79.57654,28.385225 C 81.82677,28.142912 84.07347,27.913206 86.1779,27.687002 C 86.1779,27.687002 85.70034,25.267244 85.70034,25.267244 L 86.87764,25.034895 C 86.87764,25.034895 87.36534,27.506071 87.36534,27.506071 C 87.38101,27.503 87.3972,27.501387 87.41376,27.501387 C 87.461624,27.501387 87.50633,27.514837 87.54434,27.538157 C 90.358246,27.226908 92.84178,26.918512 94.62814,26.58887 C 94.62814,26.58887 93.62126,23.954596 93.62126,23.954596 L 94.74217,23.526152 C 94.74217,23.526152 95.78634,26.257975 95.78634,26.257975 C 95.81407,26.24737 95.84416,26.24156 95.875626,26.24156 C 95.930725,26.24156 95.981674,26.25939 96.022995,26.289595 C 96.914795,26.060587 97.45018,25.819021 97.52124,25.55781  Z"/></g></g><g id="shape"><g id="outlines"><path d="M 103.2242,15.0 C 101.295746,15.0 99.510056,17.689869 100.12247,18.248676 C 102.79462,19.580053 107.98017,52.872078 108.779884,54.91418 C 109.63108,57.733124 112.22063,59.552837 114.25515,60.081768 C 114.68881,60.31833 115.55082,60.4128 116.67952,60.4128 C 120.93066,60.4128 128.96503,59.072567 132.14555,58.93519 C 133.70892,58.846527 136.28671,58.629852 139.25018,58.629852 C 141.90665,58.629852 144.87302,58.803963 147.69638,59.40046 C 148.08502,59.458527 148.6658,59.50401 149.31285,59.50401 C 151.23785,59.50401 153.74954,59.101448 153.53424,57.43006 C 153.54779,56.06722 152.18976,54.596355 151.56964,54.25002 C 151.30832,54.077766 150.91731,53.886898 150.46379,53.713604 C 150.46379,53.713604 150.95258,56.33671 150.95258,56.33671 L 149.77287,56.556538 C 149.77287,56.556538 149.2222,53.601276 149.2222,53.601276 C 149.20735,53.604023 149.19203,53.605465 149.17639,53.605465 C 149.03831,53.605465 148.92639,53.493538 148.92639,53.355465 C 148.92639,53.326996 148.93115,53.29964 148.93991,53.27414 C 148.70163,53.227997 148.46475,53.193756 148.23611,53.17509 C 147.91565,53.14764 147.56212,53.134945 147.18141,53.134945 C 146.43225,53.134945 145.5778,53.18414 144.66283,53.267 C 144.66283,53.267 144.94185,56.05783 144.94185,56.05783 L 143.7478,56.177216 C 143.7478,56.177216 143.46909,53.389435 143.46909,53.389435 C 141.912,53.565926 140.2452,53.81386 138.66052,54.06661 C 138.66052,54.06661 139.02063,56.30125 139.02063,56.30125 L 137.8359,56.49217 C 137.8359,56.49217 137.47595,54.258392 137.47595,54.258392 C 135.52489,54.578167 133.7862,54.878304 132.6572,55.020782 C 132.6572,55.020782 132.89728,56.925323 132.89728,56.925323 L 131.7067,57.075397 C 131.7067,57.075397 131.4658,55.16435 131.4658,55.16435 C 131.45557,55.16563 131.44513,55.16629 131.43454,55.16629 C 131.42596,55.16629 131.41748,55.165863 131.40912,55.16501 C 129.75858,55.359993 128.19891,55.56668 126.68075,55.730415 C 126.6663,55.734554 126.65131,55.737434 126.63592,55.738922 C 126.63592,55.738922 126.81816,57.60671 126.81816,57.60671 L 125.623825,57.723236 C 125.623825,57.723236 125.44159,55.85545 125.44159,55.85545 C 125.4336,55.85622 125.42551,55.85661 125.41731,55.85661 C 125.41643,55.85661 125.415535,55.85661 125.41464,55.856598 C 124.16293,55.969685 122.93054,56.042133 121.688705,56.042133 C 121.34131,56.042133 120.99318,56.03647 120.64368,56.024433 C 120.627396,56.027767 120.61055,56.02951 120.59329,56.02951 C 120.58835,56.02951 120.58345,56.029366 120.57859,56.029083 C 120.57859,56.029083 120.45287,58.163754 120.45287,58.163754 L 119.254944,58.093197 C 119.254944,58.093197 119.38066,55.958527 119.38066,55.958527 C 119.36003,55.957333 119.34006,55.953632 119.32106,55.947723 C 118.943726,55.916706 118.56394,55.877438 118.18094,55.82911 C 117.35234,55.82911 116.09863,55.583492 114.89316,55.04073 C 114.89316,55.04073 114.054184,57.31087 114.054184,57.31087 L 112.9286,56.89488 C 112.9286,56.89488 113.78912,54.566387 113.78912,54.566387 C 113.69392,54.531197 113.62601,54.439693 113.62581,54.332294 C 112.98059,53.8873 112.40972,53.335335 112.00653,52.66624 C 111.72741,52.00948 111.44388,50.938972 111.155136,49.567364 C 111.14586,49.548126 111.13898,49.527508 111.13487,49.505917 C 111.13487,49.505917 109.45482,49.82741 109.45482,49.82741 L 109.22928,48.6488 C 109.22928,48.6488 110.907684,48.327618 110.907684,48.327618 C 110.55542,46.47597 110.195206,44.23204 109.825615,41.794052 C 109.825615,41.794052 108.06639,42.077522 108.06639,42.077522 L 107.875496,40.892807 C 107.875496,40.892807 109.640564,40.60839 109.640564,40.60839 C 109.6385,40.595444 109.63742,40.58216 109.63742,40.568623 C 109.63742,40.561653 109.6377,40.554756 109.63826,40.54793 C 109.3247,38.447052 109.00433,36.232475 108.67631,34.02214 C 108.67631,34.02214 106.74505,34.344513 106.74505,34.344513 L 106.54747,33.160896 C 106.54747,33.160896 108.48919,32.836777 108.48919,32.836777 C 108.48697,32.823383 108.48581,32.80964 108.48581,32.795612 C 108.48581,32.783943 108.48661,32.77247 108.48816,32.76124 C 108.15,30.508942 107.80369,28.28454 107.448296,26.213814 C 107.448296,26.213814 105.31116,26.635597 105.31116,26.635597 L 105.078804,25.458302 C 105.078804,25.458302 107.22958,25.033825 107.22958,25.033825 C 107.22651,25.018158 107.2249,25.001972 107.2249,24.985407 C 107.2249,24.974201 107.22563,24.963165 107.227066,24.95235 C 106.762726,22.364294 106.282906,20.076488 105.785645,18.360737 C 105.785645,18.360737 103.517395,19.227722 103.517395,19.227722 L 103.08895,18.106812 C 103.08895,18.106812 105.396935,17.22464 105.396935,17.22464 C 105.38632,17.19691 105.380516,17.166815 105.380516,17.135357 C 105.380516,17.12655 105.380974,17.117847 105.38186,17.109272 C 105.121216,16.394617 104.855804,15.85058 104.58538,15.514149  Z"/></g></g><g id="shape"><g id="outlines"><path d="M 160.8553,60.096893 C 162.88493,60.096893 164.93922,57.60285 164.33348,57.050133 C 161.63264,55.839905 155.95604,24.242037 154.99757,20.526144 C 154.10722,17.194796 150.57353,15.850119 149.15797,15.404169 C 148.38972,15.116171 147.29877,15.000004 145.96408,15.000004 C 140.39452,15.000004 130.5806,17.022785 122.25981,17.022783 C 120.20593,17.022783 118.24301,16.899538 116.45737,16.592203 C 116.092575,16.491472 115.55553,16.435759 114.944336,16.435759 C 112.942444,16.435759 110.14513,17.033415 110.00012,18.604216 C 109.98662,19.967058 111.34544,21.069353 111.96556,21.41569 C 111.96556,21.41569 112.18356,21.560415 112.697815,21.72045 C 112.697815,21.72045 112.270325,19.426321 112.270325,19.426321 L 113.45003,19.2065 C 113.45003,19.2065 113.92886,21.776274 113.92886,21.776274 C 113.943726,21.773527 113.95903,21.772085 113.97467,21.772085 C 114.11275,21.772085 114.22467,21.884012 114.22467,22.022085 C 114.22467,22.025652 114.22461,22.029192 114.22446,22.032705 C 114.74655,22.097109 115.37158,22.139605 116.112,22.139605 C 116.66092,22.139605 117.273224,22.116251 117.954025,22.061148 C 118.126816,22.045 118.302475,22.027884 118.480835,22.009878 C 118.49359,22.006487 118.506775,22.00408 118.52025,22.002748 C 118.52025,22.002748 118.26666,19.466372 118.26666,19.466372 L 119.46071,19.346987 C 119.46071,19.346987 119.71359,21.876421 119.71359,21.876421 C 121.19066,21.706902 122.80966,21.490213 124.49365,21.252748 C 124.49365,21.252748 124.15808,19.170378 124.15808,19.170378 L 125.342804,18.97946 C 125.342804,18.97946 125.68016,21.073 125.68016,21.073 C 125.693115,21.070925 125.706406,21.069853 125.71994,21.069853 C 125.732666,21.069853 125.74515,21.070803 125.757355,21.072634 C 127.30327,20.850285 128.88663,20.616325 130.4507,20.39019 C 130.47383,20.379375 130.4989,20.37199 130.52524,20.368706 C 130.52524,20.368706 130.28748,18.482426 130.28748,18.482426 L 131.47806,18.332355 C 131.47806,18.332355 131.71458,20.208794 131.71458,20.208794 C 133.36151,19.974457 134.96931,19.754913 136.4699,19.573505 C 136.49486,19.561932 136.52205,19.554363 136.55064,19.551605 C 136.55064,19.551605 136.37103,17.710758 136.37103,17.710758 L 137.56535,17.59423 C 137.56535,17.59423 137.7441,19.426167 137.7441,19.426167 C 139.6179,19.220356 141.27463,19.09134 142.56195,19.09134 C 142.57011,19.09134 142.57826,19.09134 142.5864,19.09135 C 142.61948,19.075214 142.65662,19.066166 142.69589,19.066166 C 142.70082,19.066166 142.70572,19.066315 142.71059,19.066593 C 142.71059,19.066593 142.82852,17.06403 142.82852,17.06403 L 144.02644,17.134586 C 144.02644,17.134586 143.90965,19.117607 143.90965,19.117607 C 145.1102,19.16801 147.00894,19.359417 148.64816,20.026117 C 148.64816,20.026117 149.41861,17.941378 149.41861,17.941378 L 150.5442,18.357367 C 150.5442,18.357367 149.75946,20.480795 149.75946,20.480795 C 149.84747,20.513327 149.91217,20.593988 149.92159,20.690851 C 150.68736,21.203497 151.30194,21.88018 151.61638,22.772846 C 151.87779,23.204632 152.19073,24.460514 152.54474,26.26392 C 152.54642,26.270111 152.54788,26.276398 152.54909,26.282768 C 152.54909,26.282768 154.31357,25.945124 154.31357,25.945124 L 154.53911,27.12374 C 154.53911,27.12374 152.77463,27.461384 152.77463,27.461384 C 152.77713,27.474552 152.77861,27.48808 152.77896,27.501884 C 153.11507,29.336601 153.48299,31.571383 153.87498,34.000908 C 153.87524,34.00231 153.87547,34.00373 153.8757,34.005157 C 153.8757,34.005157 155.78151,33.698067 155.78151,33.698067 L 155.97241,34.882782 C 155.97241,34.882782 154.06659,35.189873 154.06659,35.189873 C 154.06717,35.1934 154.06766,35.196953 154.06807,35.200542 C 154.40723,37.311592 154.7628,39.53887 155.13007,41.756878 C 155.13007,41.756878 157.23541,41.40545 157.23541,41.40545 L 157.43298,42.589066 C 157.43298,42.589066 155.32742,42.940533 155.32742,42.940533 C 155.70897,45.212444 156.10197,47.45095 156.50128,49.51982 C 156.50128,49.51982 158.82678,49.06086 158.82678,49.06086 L 159.05913,50.23815 C 159.05913,50.23815 156.73305,50.697227 156.73305,50.697227 C 157.25377,53.288704 157.78343,55.55072 158.31079,57.186203 C 158.31079,57.186203 160.76508,56.248116 160.76508,56.248116 L 161.19353,57.369026 C 161.19353,57.369026 158.71751,58.315422 158.71751,58.315422 C 158.72035,58.322845 158.72285,58.33044 158.72498,58.338192 C 158.94456,58.87587 159.16324,59.290497 159.38017,59.560387  Z"/></g></g><g id="shape"><g id="outlines"><path d="M 129.0672,71.25579 C 129.0672,73.18424 131.75706,74.96993 132.31587,74.35752 C 133.64725,71.68537 166.93927,66.499825 168.98138,65.700096 C 171.80032,64.8489 173.62003,62.25936 174.14896,60.22483 C 174.38553,59.791176 174.47998,58.929176 174.47998,57.80047 C 174.47998,53.549324 173.13977,45.51496 173.00238,42.334435 C 172.91373,40.771065 172.69705,38.193275 172.69705,35.229805 C 172.69705,32.57334 172.87115,29.606972 173.46765,26.783607 C 173.52573,26.394966 173.5712,25.814186 173.5712,25.167137 C 173.5712,23.242134 173.16864,20.730446 171.49725,20.945747 C 170.1344,20.932198 168.66354,22.29023 168.3172,22.910347 C 168.14496,23.171669 167.95409,23.562675 167.78079,24.016197 C 167.78079,24.016197 170.4039,23.527412 170.4039,23.527412 L 170.62372,24.707115 C 170.62372,24.707115 167.66847,25.25779 167.66847,25.25779 C 167.67122,25.272636 167.67265,25.287956 167.67265,25.303596 C 167.67265,25.441673 167.56073,25.553596 167.42265,25.553596 C 167.3942,25.553596 167.36684,25.548836 167.34134,25.540077 C 167.2952,25.778358 167.26096,26.015236 167.24228,26.243874 C 167.21483,26.564339 167.20213,26.91787 167.20213,27.298576 C 167.20213,28.047737 167.25133,28.902184 167.3342,29.817162 C 167.3342,29.817162 170.12503,29.53814 170.12503,29.53814 L 170.24442,30.732185 C 170.24442,30.732185 167.45663,31.010902 167.45663,31.010902 C 167.63312,32.567986 167.88106,34.234795 168.13379,35.819466 C 168.13379,35.819466 170.36844,35.45936 170.36844,35.45936 L 170.55936,36.64408 C 170.55936,36.64408 168.32559,37.004036 168.32559,37.004036 C 168.64536,38.9551 168.9455,40.693794 169.08798,41.822792 C 169.08798,41.822792 170.99252,41.58271 170.99252,41.58271 L 171.14258,42.773293 C 171.14258,42.773293 169.23154,43.014183 169.23154,43.014183 C 169.23282,43.02442 169.23349,43.03486 169.23349,43.04545 C 169.23349,43.054024 169.23306,43.062508 169.23221,43.07087 C 169.42719,44.721413 169.63388,46.281075 169.7976,47.799232 C 169.80176,47.813698 169.80463,47.828682 169.80612,47.844063 C 169.80612,47.844063 171.67389,47.661827 171.67389,47.661827 L 171.79044,48.856163 C 171.79044,48.856163 169.92264,49.0384 169.92264,49.0384 C 169.9234,49.046394 169.9238,49.05448 169.9238,49.062675 C 169.9238,49.06356 169.9238,49.06446 169.9238,49.065346 C 170.03687,50.317055 170.10931,51.549446 170.10931,52.791283 C 170.10931,53.13868 170.10367,53.48681 170.09161,53.83631 C 170.09497,53.852592 170.09671,53.86944 170.09671,53.886696 C 170.09671,53.89164 170.09656,53.896538 170.09628,53.901405 C 170.09628,53.901405 172.23096,54.027107 172.23096,54.027107 L 172.1604,55.225044 C 172.1604,55.225044 170.02573,55.099327 170.02573,55.099327 C 170.02454,55.119957 170.02081,55.13993 170.01492,55.158928 C 169.98389,55.536263 169.94464,55.916054 169.8963,56.29905 C 169.8963,57.127647 169.6507,58.381355 169.10791,59.58683 C 169.10791,59.58683 171.37805,60.425804 171.37805,60.425804 L 170.96207,61.5514 C 170.96207,61.5514 168.63358,60.690865 168.63358,60.690865 C 168.59839,60.786064 168.5069,60.85398 168.39948,60.85418 C 167.9545,61.499397 167.40253,62.07026 166.73343,62.473457 C 166.07668,62.752586 165.00616,63.03611 163.63455,63.324852 C 163.61533,63.33413 163.5947,63.34101 163.5731,63.345116 C 163.5731,63.345116 163.8946,65.02517 163.8946,65.02517 L 162.71599,65.25071 C 162.71599,65.25071 162.3948,63.572304 162.3948,63.572304 C 160.54317,63.92457 158.29922,64.28478 155.86124,64.654366 C 155.86124,64.654366 156.14471,66.4136 156.14471,66.4136 L 154.95999,66.6045 C 154.95999,66.6045 154.67558,64.839424 154.67558,64.839424 C 154.66263,64.8415 154.64935,64.84257 154.63582,64.84257 C 154.62885,64.84257 154.62195,64.84229 154.61513,64.84173 C 152.51424,65.15528 150.29967,65.475655 148.08932,65.80367 C 148.08932,65.80367 148.4117,67.73495 148.4117,67.73495 L 147.22809,67.93252 C 147.22809,67.93252 146.90396,65.99081 146.90396,65.99081 C 146.89058,65.99302 146.87683,65.99418 146.86281,65.99418 C 146.85114,65.99418 146.83966,65.993385 146.82843,65.99183 C 144.57614,66.32998 142.35173,66.67631 140.281,67.0317 C 140.281,67.0317 140.70279,69.16883 140.70279,69.16883 L 139.5255,69.40118 C 139.5255,69.40118 139.10101,67.250404 139.10101,67.250404 C 139.08536,67.25349 139.06917,67.25509 139.0526,67.25509 C 139.0414,67.25509 139.03036,67.25436 139.01955,67.25292 C 136.43149,67.71726 134.14368,68.197075 132.42793,68.69434 C 132.42793,68.69434 133.29492,70.96259 133.29492,70.96259 L 132.17401,71.39103 C 132.17401,71.39103 131.29184,69.08306 131.29184,69.08306 C 131.2641,69.093666 131.23401,69.099464 131.20255,69.099464 C 131.19374,69.099464 131.18504,69.09902 131.17647,69.09812 C 130.4618,69.35877 129.91777,69.62418 129.58134,69.8946  Z"/></g></g><g id="shape"><g id="outlines"><path d="M 69.10969,35.0 C 67.05889,35.0 64.936165,37.99978 65.289986,38.464256 C 66.608765,39.609974 71.95397,70.80882 72.1279,77.21576 C 72.25281,81.66785 70.82082,85.91852 70.82082,85.91852 C 70.82082,85.91852 70.82784,85.92177 70.8414,85.92801 C 67.1129,96.77893 60.0,117.479385 60.0,117.479385 C 60.0,117.479385 63.947,117.479385 63.947,117.479385 C 63.947,117.479385 71.558266,98.302895 75.68479,87.906166 C 76.72291,85.62244 77.32473,83.44351 79.66765,81.702286 C 81.55578,80.28923 92.16438,79.22937 100.041016,79.22937 C 103.8779,79.22937 107.06652,79.480865 108.28311,80.06553 C 110.50987,81.17643 111.50729,83.06847 112.12675,85.22034 C 114.24735,95.25089 119.088684,118.1506 119.088684,118.1506 C 119.088684,118.1506 122.854675,118.1506 122.854675,118.1506 C 122.854675,118.1506 120.01279,100.59961 118.16354,89.179016 C 118.18107,89.1758 118.19022,89.17411 118.19022,89.17411 C 118.19022,89.17411 117.16202,81.1221 117.16202,81.1221 C 117.16202,81.1221 116.79939,76.83916 116.19291,75.45944 C 115.43876,73.83565 114.17482,73.40401 113.20384,73.18828 C 113.20384,73.18828 117.360245,95.49405 117.360245,95.49405 L 116.18054,95.71387 C 116.18054,95.71387 111.97928,73.1673 111.97928,73.1673 C 111.96443,73.170044 111.94911,73.171486 111.93347,73.171486 C 111.795395,73.171486 111.68347,73.059555 111.68347,72.921486 C 111.68347,72.91812 111.68353,72.91477 111.68367,72.91142 C 111.3349,72.8765 110.956505,72.86034 110.5512,72.86034 C 109.69438,72.86034 108.717316,72.93257 107.64583,73.052414 C 107.622025,73.06299 107.59628,73.06996 107.56927,73.07263 C 107.56927,73.07263 107.9043,76.423676 107.9043,76.423676 L 106.71025,76.54306 C 106.71025,76.54306 106.37695,73.20938 106.37695,73.20938 C 104.87964,73.4099 103.23642,73.67636 101.505806,73.95294 C 101.505806,73.95294 101.92461,76.55192 101.92461,76.55192 L 100.7399,76.742836 C 100.7399,76.742836 100.32094,74.14293 100.32094,74.14293 C 100.31118,74.1445 100.30122,74.14549 100.29112,74.14589 C 98.74825,74.38876 97.149124,74.62952 95.53262,74.8311 C 95.53262,74.8311 95.8114,77.04282 95.8114,77.04282 L 94.62082,77.1929 C 94.62082,77.1929 94.341705,74.9785 94.341705,74.9785 C 94.33146,74.97978 94.32102,74.980446 94.31043,74.980446 C 94.29999,74.980446 94.2897,74.97981 94.2796,74.97856 C 92.689354,75.153885 91.09205,75.282394 89.52426,75.32924 C 89.52426,75.32924 89.7351,77.49013 89.7351,77.49013 L 88.54077,77.60666 C 88.54077,77.60666 88.32561,75.40144 88.32561,75.40144 C 88.31762,75.40221 88.30952,75.4026 88.30133,75.4026 C 88.24261,75.4026 88.18862,75.38236 88.14596,75.34848 C 86.62144,75.34416 85.13605,75.250565 83.724785,75.0343 C 83.724785,75.0343 83.559784,77.836044 83.559784,77.836044 L 82.361855,77.76549 C 82.361855,77.76549 82.53064,74.89964 82.53064,74.89964 C 82.44357,74.89461 82.36846,74.845 82.32777,74.7733 C 81.827705,74.66185 81.3393,74.53226 80.8643,74.3828 C 80.03638,74.09877 79.396286,73.871826 78.84243,73.56504 C 78.84243,73.56504 70.711945,95.565094 70.711945,95.565094 L 69.58635,95.14909 C 69.58635,95.14909 77.76198,73.0269 77.76198,73.0269 C 77.666626,72.99167 77.59866,72.89994 77.59866,72.79234 C 77.59866,72.732765 77.61951,72.67804 77.654305,72.6351 C 77.28782,72.24284 76.92532,71.74225 76.52191,71.07279 C 76.394684,70.880295 76.2712,70.64752 76.15124,70.377945 C 76.05342,70.357086 75.976776,70.27901 75.95803,70.18042 C 75.95803,70.18042 73.74711,70.6035 73.74711,70.6035 L 73.521576,69.4249 C 73.521576,69.4249 75.66044,69.0156 75.66044,69.0156 C 75.17164,67.39035 74.745415,65.14087 74.36193,62.56907 C 74.36193,62.56907 72.36512,62.890823 72.36512,62.890823 L 72.174225,61.706104 C 72.174225,61.706104 74.17947,61.382996 74.17947,61.382996 C 74.1774,61.370033 74.17632,61.35675 74.17632,61.343216 C 74.17632,61.329063 74.1775,61.3152 74.179756,61.301685 C 73.89342,59.23828 73.63073,57.011185 73.38253,54.760048 C 73.38253,54.760048 71.240715,55.11757 71.240715,55.11757 L 71.04314,53.93395 C 71.04314,53.93395 73.21822,53.570877 73.21822,53.570877 C 73.216,53.557484 73.21485,53.54374 73.21485,53.529713 C 73.21485,53.492752 73.22287,53.457664 73.23727,53.4261 C 72.99495,51.175865 72.76524,48.92916 72.53904,46.82473 C 72.53904,46.82473 70.11928,47.302296 70.11928,47.302296 L 69.88693,46.125 C 69.88693,46.125 72.35811,45.63729 72.35811,45.63729 C 72.355034,45.621624 72.353424,45.60544 72.353424,45.588875 C 72.353424,45.541016 72.366875,45.4963 72.3902,45.458294 C 72.07895,42.64439 71.770546,40.16086 71.4409,38.374493 C 71.4409,38.374493 68.80663,39.38138 68.80663,39.38138 L 68.37819,38.260468 C 68.37819,38.260468 71.110016,37.216297 71.110016,37.216297 C 71.09941,37.18857 71.0936,37.15847 71.0936,37.127014 C 71.0936,37.071907 71.11143,37.020966 71.14163,36.979637 C 70.91262,36.087837 70.67106,35.552452 70.40985,35.481396  Z"/></g></g><g id="shape"><g id="outlines"><path d="M 189.59685,60.09685 L 186.72194,49.806828 L 185.78943,39.51682 L 186.72194,29.226795 L 189.59685,18.936787 C 189.59685,18.936787 189.59685,14.436787 189.59685,14.436787 C 189.59685,14.436787 184.2798,14.436787 183.78445,18.33678 C 183.78445,18.33678 186.67221,18.33678 186.67221,18.33678 L 186.67221,19.536793 C 186.67221,19.536793 183.74756,19.536793 183.74756,19.536793 C 183.74756,19.642857 183.6815,19.733494 183.58829,19.76981 C 183.20328,21.783543 182.2292,26.878193 181.89487,28.626804 C 181.89487,28.626804 184.25105,28.626804 184.25105,28.626804 L 184.25105,29.826801 C 184.25105,29.826801 181.78015,29.826801 181.78015,29.826801 C 181.78015,29.908833 181.74065,29.981617 181.67963,30.02721 C 181.67963,30.02721 180.56322,38.916813 180.56322,38.916813 L 183.13864,38.916813 L 183.13864,40.116825 L 180.56322,40.116825 C 180.56322,40.116825 181.67963,49.006428 181.67963,49.006428 C 181.74065,49.052006 181.78015,49.124805 181.78015,49.206837 C 181.78015,49.206837 184.25104,49.206837 184.25104,49.206837 L 184.25104,50.406834 C 184.25104,50.406834 181.89487,50.406834 181.89487,50.406834 C 182.2292,52.155445 183.20328,57.25008 183.58829,59.263813 C 183.6815,59.300144 183.74756,59.39078 183.74756,59.496845 C 183.74756,59.496845 186.67221,59.496845 186.67221,59.496845 L 186.67221,60.696842 C 186.67221,60.696842 183.78445,60.696842 183.78445,60.696842 C 184.2798,64.59685 189.59685,64.59685 189.59685,64.59685  Z"/></g></g><g id="shape"><g id="outlines"><path d="M 135.0,82.55368 L 139.5,82.55368 L 149.79002,80.41228 L 160.08003,79.67996 L 170.37006,80.41228 L 180.66006,82.55368 C 180.66006,82.55368 185.16006,82.55368 185.16006,82.55368 C 185.16006,82.55368 185.16006,77.97429 181.26007,77.54767 C 181.26007,77.54767 181.26007,80.03478 181.26007,80.03478 L 180.06006,80.03478 C 180.06006,80.03478 180.06006,77.51589 180.06006,77.51589 C 179.97069,77.51589 179.89226,77.46899 179.84807,77.39845 C 177.849,77.10933 172.72478,76.36822 170.97005,76.11443 C 170.97005,76.11443 170.97005,78.21996 170.97005,78.21996 L 169.77005,78.21996 C 169.77005,78.21996 169.77005,76.02765 169.77005,76.02765 C 169.69597,76.02765 169.62943,75.99544 169.58365,75.94425 C 169.58365,75.94425 160.68004,74.99999 160.68004,74.99999 L 160.68004,77.30816 L 159.48003,77.30816 L 159.48003,74.99999 C 159.48003,74.99999 150.57642,75.94425 150.57642,75.94425 C 150.53064,75.99544 150.4641,76.02765 150.39001,76.02765 C 150.39001,76.02765 150.39001,78.21996 150.39001,78.21996 L 149.19002,78.21996 C 149.19002,78.21996 149.19002,76.11443 149.19002,76.11443 C 147.43529,76.36822 142.31107,77.10933 140.31201,77.39845 C 140.2678,77.468994 140.18938,77.51589 140.1,77.51589 C 140.1,77.51589 140.1,80.03479 140.1,80.03479 L 138.90001,80.03479 C 138.90001,80.03479 138.90001,77.54767 138.90001,77.54767  Z"/></g></g><g id="shape"><g id="outlines"><path d="M 85.160065,15.0 L 80.660065,15.0 L 70.37004,16.724926 L 60.080032,17.305876 L 49.790016,16.724926 L 39.5,15.000002 C 39.5,15.000002 35.0,15.000002 35.0,15.000002 C 35.0,15.000002 35.0,19.009125 38.9,19.382618 C 38.9,19.382618 38.9,17.205217 38.9,17.205217 L 40.1,17.205217 C 40.1,17.205217 40.1,19.410435 40.1,19.410435 C 40.180458,19.410435 40.252037,19.44844 40.297764,19.507479 C 42.286625,19.749413 47.4311,20.375214 49.190014,20.589176 C 49.190014,20.589176 49.190014,18.693544 49.190014,18.693544 L 50.390015,18.693544 C 50.390015,18.693544 50.390015,20.662163 50.390015,20.662163 C 50.456635,20.662163 50.517166,20.688221 50.561977,20.7307 C 50.561977,20.7307 59.480034,21.522465 59.480034,21.522465 L 59.480034,19.440804 L 60.68003,19.440804 L 60.68003,21.522465 C 60.68003,21.522465 69.59808,20.7307 69.59808,20.7307 C 69.6429,20.688221 69.70343,20.662163 69.77005,20.662163 C 69.77005,20.662163 69.77005,18.693544 69.77005,18.693544 L 70.97005,18.693544 C 70.97005,18.693544 70.97005,20.589176 70.97005,20.589176 C 72.72896,20.375212 77.87344,19.749413 79.862305,19.507477 C 79.90803,19.448439 79.9796,19.410433 80.06006,19.410433 C 80.06006,19.410433 80.06006,17.205215 80.06006,17.205215 L 81.260056,17.205215 C 81.260056,17.205215 81.260056,19.382616 81.260056,19.382616  Z"/></g></g><g id="shape"><g id="outlines"><path d="M 197.9887,62.9887 L 197.9887,58.4887 L 196.45795,48.198677 L 195.98819,37.90867 L 196.45796,27.618645 L 197.98871,17.328636 C 197.98871,17.328636 197.9887,12.828636 197.9887,12.828636 C 197.9887,12.828636 194.29605,12.828636 193.95203,16.72863 C 193.95203,16.72863 195.95755,16.72863 195.95755,16.72863 L 195.95755,17.928642 C 195.95755,17.928642 193.9264,17.928642 193.9264,17.928642 C 193.9264,18.000786 193.89586,18.065788 193.84697,18.111412 C 193.64627,20.089287 193.12202,25.255302 192.94308,27.018654 C 192.94308,27.018654 194.67007,27.018654 194.67007,27.018654 L 194.67007,28.21865 C 194.67007,28.21865 192.8822,28.21865 192.8822,28.21865 C 192.8822,28.278175 192.8614,28.332848 192.82666,28.375786 C 192.82666,28.375786 192.17137,37.308662 192.17137,37.308662 L 194.05777,37.308662 L 194.05777,38.508675 L 192.17137,38.508675 C 192.17137,38.508675 192.82666,47.44155 192.82666,47.44155 C 192.86139,47.48449 192.8822,47.539146 192.8822,47.598686 C 192.8822,47.598686 194.67007,47.598686 194.67007,47.598686 L 194.67007,48.798683 C 194.67007,48.798683 192.94308,48.798683 192.94308,48.798683 C 193.12202,50.562035 193.64627,55.728035 193.84697,57.705925 C 193.89586,57.75155 193.9264,57.81655 193.9264,57.888695 C 193.9264,57.888695 195.95755,57.888695 195.95755,57.888695 L 195.95755,59.08869 C 195.95755,59.08869 193.95203,59.08869 193.95203,59.08869  Z"/></g></g><g id="shape"><g id="outlines"><path d="M 15.0,85.83356 L 19.500004,85.83356 L 29.79002,84.00547 L 40.080032,83.55691 L 50.37005,84.00547 L 60.660065,85.83356 C 60.660065,85.83356 65.160065,85.83356 65.160065,85.83356 C 65.160065,85.83356 65.160065,81.74105 61.260063,81.35979 C 61.260063,81.35979 61.260063,83.58247 61.260063,83.58247 L 60.060066,83.58247 C 60.060066,83.58247 60.060066,81.33139 60.060066,81.33139 C 60.000896,81.33139 59.94653,81.31084 59.903713,81.27648 C 57.945824,81.13433 52.74131,80.75646 50.97005,80.62786 C 50.97005,80.62786 50.97005,82.29488 50.97005,82.29488 L 49.77005,82.29488 C 49.77005,82.29488 49.77005,80.5843 49.77005,80.5843 C 49.716946,80.5843 49.66771,80.56774 49.62722,80.539505 C 49.62722,80.539505 40.68003,80.0 40.68003,80.0 L 40.68003,81.76037 L 39.480034,81.76037 L 39.480034,80.0 C 39.480034,80.0 30.532848,80.539505 30.532848,80.539505 C 30.49236,80.56774 30.443123,80.5843 30.390018,80.5843 C 30.390018,80.5843 30.390018,82.29488 30.390018,82.29488 L 29.190022,82.29488 C 29.190022,82.29488 29.190022,80.62786 29.190022,80.62786 C 27.418755,80.75646 22.214245,81.13433 20.256355,81.27648 C 20.21354,81.31084 20.159172,81.33139 20.100006,81.33139 C 20.100006,81.33139 20.100006,83.58247 20.100006,83.58247 L 18.900005,83.58247 C 18.900005,83.58247 18.900005,81.35979 18.900005,81.35979  Z"/></g></g><g id="shape"><g id="outlines"><path d="M 170.66006,85.0 L 160.37004,87.080574 L 150.08003,87.859245 L 139.79001,87.080574 L 129.5,85.0 C 129.5,85.0 125.0,85.0 125.0,85.0 C 125.0,85.000145 125.00005,90.2192 128.9,90.70542 C 128.9,90.70542 128.9,87.87082 128.9,87.87082 L 130.1,87.87082 C 130.1,87.87082 130.1,90.74163 130.1,90.74163 C 130.15286,90.74163 130.2019,90.75804 130.24228,90.78605 C 132.1892,90.902534 137.41449,91.21519 139.19002,91.32142 C 139.19002,91.32142 139.19002,89.21895 139.19002,89.21895 L 140.39001,89.21895 C 140.39001,89.21895 140.39001,91.35732 140.39001,91.35732 C 140.43767,91.35732 140.48221,91.37065 140.5201,91.39379 C 140.5201,91.39379 149.48003,91.84134 149.48003,91.84134 L 149.48003,89.86528 L 150.68002,89.86528 L 150.68002,91.84134 C 150.68002,91.84134 159.63995,91.39379 159.63995,91.39379 C 159.67786,91.37065 159.7224,91.35732 159.77005,91.35732 C 159.77005,91.35732 159.77005,89.21895 159.77005,89.21895 L 160.97005,89.21895 C 160.97005,89.21895 160.97005,91.32142 160.97005,91.32142 C 162.74557,91.21519 167.97087,90.902534 169.91777,90.78605 C 169.95816,90.75804 170.0072,90.74163 170.06006,90.74163 C 170.06006,90.74163 170.06006,87.87082 170.06006,87.87082 L 171.26006,87.87082 C 171.26006,87.87082 171.26006,90.70542 171.26006,90.70542 C 175.16006,90.21919 175.16006,85.0 175.16006,85.0  Z"/></g></g><g id="shape"><g id="outlines"><path d="M 15.0,90.0 C 15.0,90.00011 15.000053,94.028206 18.9,94.403465 C 18.9,94.403465 18.9,92.215706 18.9,92.215706 L 20.1,92.215706 C 20.1,92.215706 20.1,94.43142 20.1,94.43142 C 20.16164,94.43142 20.21807,94.45373 20.261656,94.49071 C 22.223621,94.64344 27.420351,95.04798 29.190014,95.18574 C 29.190014,95.18574 29.190014,93.355774 29.190014,93.355774 L 30.390015,93.355774 C 30.390015,93.355774 30.390015,95.232445 30.390015,95.232445 C 30.438568,95.232445 30.48389,95.246284 30.522247,95.27024 C 30.522247,95.27024 39.480034,95.732574 39.480034,95.732574 L 39.480034,93.91394 L 40.68003,93.91394 L 40.68003,95.732574 C 40.68003,95.732574 49.637814,95.27024 49.637814,95.27024 C 49.676174,95.246284 49.721493,95.232445 49.770046,95.232445 C 49.770046,95.232445 49.770046,93.355774 49.770046,93.355774 L 50.970043,93.355774 C 50.970043,93.355774 50.970043,95.18574 50.970043,95.18574 C 52.73971,95.04798 57.93644,94.64344 59.898403,94.49071 C 59.941994,94.45373 59.99842,94.43142 60.06006,94.43142 C 60.06006,94.43142 60.06006,92.215706 60.06006,92.215706 L 61.26006,92.215706 C 61.26006,92.215706 61.26006,94.403465 61.26006,94.403465 C 65.160065,94.0282 65.160065,90.0 65.160065,90.0 C 65.160065,90.0 60.66006,90.0 60.66006,90.0 L 50.370045,91.479095 L 40.080032,92.06433 L 29.790016,91.479095 L 19.5,90.0  Z"/></g></g><g id="shape"><g id="outlines"><path d="M 197.822,67.66194 C 197.8219,67.66194 193.76431,67.662 193.38629,71.561935 C 193.38629,71.561935 195.59007,71.561935 195.59007,71.561935 L 195.59007,72.76195 C 195.59007,72.76195 193.35814,72.76195 193.35814,72.76195 C 193.35814,72.81413 193.34216,72.86258 193.3148,72.902664 C 193.20099,74.84833 192.89514,80.07596 192.79124,81.85196 C 192.79124,81.85196 194.68234,81.85196 194.68234,81.85196 L 194.68234,83.051956 C 194.68234,83.051956 192.75613,83.051956 192.75613,83.051956 C 192.75613,83.095795 192.74486,83.13699 192.72504,83.17282 C 192.72504,83.17282 192.33806,92.14197 192.33806,92.14197 L 194.21341,92.14197 L 194.21341,93.341965 L 192.33806,93.341965 C 192.33806,93.341965 192.72504,102.31113 192.72504,102.31113 C 192.74486,102.346954 192.75613,102.38815 192.75613,102.43199 C 192.75613,102.43199 194.68233,102.43199 194.68233,102.43199 L 194.68233,103.63199 C 194.68233,103.63199 192.79123,103.63199 192.79123,103.63199 C 192.89514,105.40799 193.20097,110.63562 193.3148,112.58128 C 193.34215,112.62137 193.35814,112.669815 193.35814,112.722 C 193.35814,112.722 195.59007,112.722 195.59007,112.722 L 195.59007,113.922 C 195.59007,113.922 193.38629,113.922 193.38629,113.922 C 193.76431,117.82201 197.822,117.82201 197.822,117.82201 C 197.822,117.82201 197.822,113.32201 197.822,113.32201 L 196.60854,103.03198 L 196.11465,92.741974 L 196.60854,82.45195 L 197.822,72.16194  Z"/></g></g><g id="shape"><g id="outlines"><path d="M 125.0,95.0 C 125.0,95.00013 125.00005,99.78773 128.9,100.23375 C 128.9,100.23375 128.9,97.633484 128.9,97.633484 L 130.1,97.633484 C 130.1,97.633484 130.1,100.26697 130.1,100.26697 C 130.14175,100.26697 130.18114,100.27721 130.21574,100.29532 C 132.14125,100.371574 137.40636,100.5801 139.19002,100.65074 C 139.19002,100.65074 139.19002,98.41082 139.19002,98.41082 L 140.39001,98.41082 C 140.39001,98.41082 140.39001,100.67451 140.39001,100.67451 C 140.42276,100.67451 140.45403,100.68079 140.48268,100.69224 C 140.48268,100.69224 149.48003,100.92259 149.48003,100.92259 L 149.48003,98.81736 L 150.68002,98.81736 L 150.68002,100.92259 C 150.68002,100.92259 159.67738,100.69224 159.67738,100.69224 C 159.70604,100.68079 159.7373,100.67451 159.77005,100.67451 C 159.77005,100.67451 159.77005,98.41082 159.77005,98.41082 L 160.97005,98.41082 C 160.97005,98.41082 160.97005,100.65074 160.97005,100.65074 C 162.7537,100.5801 168.01881,100.371574 169.94432,100.29532 C 169.97893,100.27721 170.0183,100.26697 170.06006,100.26697 C 170.06006,100.26697 170.06006,97.633484 170.06006,97.633484 L 171.26006,97.633484 C 171.26006,97.633484 171.26006,100.23375 171.26006,100.23375 C 175.16006,99.78772 175.16006,95.0 175.16006,95.0 C 175.16006,95.0 170.66006,95.0 170.66006,95.0 L 160.37004,96.14713 L 150.08003,96.69677 L 139.79001,96.14713 L 129.5,95.0  Z"/></g></g><g id="shape"><g id="outlines"><path d="M 88.53875,83.378685 C 88.53858,83.378685 82.41609,83.37874 81.8457,87.27869 C 81.8457,87.27869 85.17099,87.27869 85.17099,87.27869 L 85.17099,88.47868 C 85.17099,88.47868 81.80322,88.47868 81.80322,88.47868 C 81.80322,88.497475 81.801155,88.51578 81.797226,88.53338 C 81.78005,90.40612 81.73093,95.76584 81.71439,97.5687 C 81.71439,97.5687 84.51547,97.5687 84.51547,97.5687 L 84.51547,98.7687 C 84.51547,98.7687 81.7089,98.7687 81.7089,98.7687 C 81.7089,98.787346 81.706856,98.80552 81.70298,98.823006 C 81.70298,98.823006 81.621315,107.85872 81.621315,107.85872 L 84.16494,107.85872 L 84.16494,109.058716 L 81.621315,109.058716 C 81.621315,109.058716 81.70298,118.09443 81.70298,118.09443 C 81.706856,118.111916 81.7089,118.13009 81.7089,118.148735 C 81.7089,118.148735 84.51547,118.148735 84.51547,118.148735 L 84.51547,119.34873 C 84.51547,119.34873 81.71439,119.34873 81.71439,119.34873 C 81.73093,121.151596 81.78005,126.511314 81.797226,128.38406 C 81.801155,128.40164 81.80322,128.41995 81.80322,128.43875 C 81.80322,128.43875 85.17099,128.43875 85.17099,128.43875 L 85.17099,129.63873 C 85.17099,129.63873 81.8457,129.63873 81.8457,129.63873 C 82.4161,133.53876 88.53875,133.53876 88.53875,133.53876 C 88.53875,133.53876 88.53875,129.03876 88.53875,129.03876 L 87.322044,118.748726 L 86.71399,108.45872 L 87.322044,98.1687 L 88.53875,87.878685  Z"/></g></g><g id="shape"><g id="outlines"><path d="M 12.145325,148.01474 C 12.145645,148.01472 19.307213,147.7914 19.307213,146.29143 C 19.307213,146.29143 58.01474,145.39774 58.01474,145.39774 C 58.01474,145.39774 58.01474,144.11475 58.01474,144.11475 L 35.080032,144.11475 L 35.080032,142.91473 L 58.01474,142.91473 L 58.01474,141.63174 L 19.307213,140.73805 L 19.608597,133.82472 L 16.62857,133.82472 L 16.62857,132.62473 L 19.618408,132.62473 C 19.618408,132.62473 19.373428,123.63035 19.373428,123.63035 C 19.361221,123.60088 19.354485,123.56858 19.354485,123.534706 C 19.354485,123.534706 16.740425,123.534706 16.740425,123.534706 L 16.740425,122.33471 C 16.740425,122.33471 19.354485,122.33471 19.354485,122.33471 C 19.354485,122.300835 19.361221,122.26853 19.373428,122.23907 C 19.373428,122.23907 19.618408,113.24469 19.618408,113.24469 L 16.62857,113.24469 L 16.62857,112.04469 L 19.608597,112.04469 L 19.307213,105.13137 L 58.01474,104.23767 L 58.01474,102.95468 L 35.080032,102.95468 L 35.080032,101.75468 L 58.01474,101.754684 C 58.01474,101.754684 58.01474,100.47168 58.01474,100.47168 C 58.01474,100.47168 19.307213,99.57799 19.307213,99.57799 C 19.307213,98.07799 12.145325,97.854675 12.145325,97.854675 C 12.145325,97.854675 12.145325,102.354675 12.145325,102.354675 L 13.622391,112.6447 L 14.126366,122.93471 L 13.622391,133.22473 L 12.145325,143.51474  Z"/></g></g><g id="shape"><g id="outlines"><path d="M 135.66006,152.16928 C 135.66006,152.16928 140.16006,152.16928 140.16006,152.16928 C 140.16005,152.16895 139.93672,144.50388 138.43675,144.50388 C 138.43675,144.50388 137.63356,105.0 137.63356,105.0 C 137.63356,105.0 136.26007,105.0 136.26007,105.0 L 136.26007,128.58464 L 135.06006,128.58464 L 135.06007,105.0 L 133.68657,105.0 L 132.88336,144.50388 L 125.97005,144.47977 L 125.97005,146.96014 L 124.77005,146.96014 C 124.77005,146.96014 124.77005,144.47768 124.77005,144.47768 C 124.72626,144.47768 124.6851,144.46642 124.64931,144.44664 C 124.64931,144.44664 115.68003,144.06036 115.68003,144.06036 L 115.68003,146.29837 L 114.480034,146.29837 L 114.480034,144.06036 C 114.480034,144.06036 105.510765,144.44662 105.510765,144.44662 C 105.47497,144.46642 105.43381,144.47766 105.390015,144.47766 C 105.390015,144.47766 105.390015,146.96014 105.390015,146.96014 L 104.19002,146.96014 L 104.19002,144.47977 L 97.2767,144.50386 L 96.47351,105.0 L 95.100006,105.0 L 95.100006,128.58464 L 93.899994,128.58464 L 93.90001,105.0 C 93.90001,105.0 92.526505,105.0 92.526505,105.0 C 92.526505,105.0 91.72331,144.50386 91.72331,144.50386 C 90.22331,144.50386 90.0,152.16928 90.0,152.16928 C 90.0,152.16928 94.5,152.16928 94.5,152.16928 L 104.79002,149.44263 L 115.08003,148.56223 L 125.37005,149.44263  Z"/></g></g></g></g></g></svg>
