<?xml version="1.0" encoding="UTF-8" standalone="no"?>
<svg
   xmlns:dc="http://purl.org/dc/elements/1.1/"
   xmlns:cc="http://creativecommons.org/ns#"
   xmlns:rdf="http://www.w3.org/1999/02/22-rdf-syntax-ns#"
   xmlns:svg="http://www.w3.org/2000/svg"
   xmlns="http://www.w3.org/2000/svg"
   xmlns:sodipodi="http://sodipodi.sourceforge.net/DTD/sodipodi-0.dtd"
   xmlns:inkscape="http://www.inkscape.org/namespaces/inkscape"
   width="744.094488189"
   height="1052.36220472"
   id="svg2"
   version="1.1"
   inkscape:version="0.48.2 r9819"
   sodipodi:docname="beer4packer.dxf">
  <metadata
     id="metadata84">
    <rdf:RDF>
      <cc:Work
         rdf:about="">
        <dc:format>image/svg+xml</dc:format>
        <dc:type
           rdf:resource="http://purl.org/dc/dcmitype/StillImage" />
        <dc:title></dc:title>
      </cc:Work>
    </rdf:RDF>
  </metadata>
  <sodipodi:namedview
     pagecolor="#ffffff"
     bordercolor="#666666"
     borderopacity="1"
     objecttolerance="10"
     gridtolerance="10"
     guidetolerance="10"
     inkscape:pageopacity="0"
     inkscape:pageshadow="2"
     inkscape:window-width="1280"
     inkscape:window-height="972"
     id="namedview82"
     showgrid="false"
     inkscape:zoom="0.31714784"
     inkscape:cx="14.670428"
     inkscape:cy="675.86428"
     inkscape:window-x="-8"
     inkscape:window-y="-8"
     inkscape:window-maximized="1"
     inkscape:current-layer="g22" />
  <desc
     id="desc4">C:\Users\VHS Admin\Desktop\Laser User Files\1fishboy\6 packer\4packer.dxf - scale = 1.000000</desc>
  <defs
     id="defs6">
    <marker
       refY="0.0"
       refX="0.0"
       style="overflow:visible"
       id="DistanceX"
       orient="auto">
      <path
         style="stroke:#000000; stroke-width:0.5"
         d="M 3,-3 L -3,3 M 0,-5 L  0,5"
         id="path9" />
    </marker>
    <pattern
       height="8"
       width="8"
       patternUnits="userSpaceOnUse"
       y="0"
       x="0"
       id="Hatch">
      <path
         linecap="square"
         stroke="#000000"
         stroke-width="0.25"
         d="M8 4 l-4,4"
         id="path12" />
      <path
         linecap="square"
         stroke="#000000"
         stroke-width="0.25"
         d="M6 2 l-4,4"
         id="path14" />
      <path
         linecap="square"
         stroke="#000000"
         stroke-width="0.25"
         d="M4 0 l-4,4"
         id="path16" />
    </pattern>
    <symbol
       id="*MODEL_SPACE" />
    <symbol
       id="*PAPER_SPACE" />
  </defs>
  <g
     inkscape:label="0"
     inkscape:groupmode="layer"
     id="g20" />
  <g
     inkscape:label="Layer_1"
     inkscape:groupmode="layer"
     id="g22">
    <path
       style="font-size:medium;font-style:normal;font-variant:normal;font-weight:normal;font-stretch:normal;text-indent:0;text-align:start;text-decoration:none;line-height:normal;letter-spacing:normal;word-spacing:normal;text-transform:none;direction:ltr;block-progression:tb;writing-mode:lr-tb;text-anchor:start;baseline-shift:baseline;color:#000000;fill:#000000;fill-opacity:1;stroke:none;stroke-width:1.05040002;marker:none;visibility:visible;display:inline;overflow:visible;enable-background:accumulate;font-family:Sans;-inkscape-font-specification:Sans"
       d="m -797.25,-516.15625 0,0.53125 0,0.4375 -18.03125,0 -0.0312,0 -0.0625,0 -36.25,7.71875 -0.0625,0 -0.0312,0.0312 -33.875,15.0625 -0.0312,0.0312 -0.0625,0.0312 -29.96875,21.78125 -0.0312,0.0312 -0.0625,0.0312 -24.78125,27.53125 -0.0312,0.0625 -0.0312,0.0312 -18.53125,32.09375 -0.0312,0.0625 0,0.0312 -11.46875,35.25 0,0.0625 -0.0312,0.0625 -3.84375,36.84375 -0.0312,0.0312 0,0.0312 0,135.875 0,0.53125 0.53125,0 20.15625,0 0,46.21875 -20.15625,0 -0.53125,0 0,0.53125 0,135.90625 0.375,0 -0.34375,0.03125 3.84375,36.875 0.0312,0.03125 0,0.0625 11.46875,35.25 0,0.0625 0.0312,0.03125 18.53125,32.09375 0.0312,0.0625 0.0312,0.03125 24.78125,27.53125 0.0625,0.0312 0.0312,0.0312 29.96875,21.78125 0.0625,0.0312 0.0312,0.0312 33.875,15.0625 0.0312,0.0312 0.0625,0.0312 36.25,7.6875 0.0625,0 0.0312,0 18.03125,0 0,0.46875 0,0.53125 0.5,0 153.625,0 0.53125,0 0,-0.53125 0,-20.15625 46.21875,0 0,20.15625 0,0.53125 0.53125,0 153.625,0 0.53125,0 0,-0.53125 0,-0.46875 18,0 0.0312,0 0.0625,0 36.25,-7.6875 0.0625,-0.0312 0.0312,-0.0312 33.875,-15.0625 0.0312,-0.0312 0.0625,-0.0312 29.96875,-21.78125 0.0312,-0.0312 0.0625,-0.0312 24.78125,-27.53125 0.0312,-0.03125 0.0312,-0.0625 18.53125,-32.09375 0.0312,-0.03125 0,-0.0625 11.46875,-35.25 0,-0.0625 0.0312,-0.03125 3.875,-36.875 0,-0.03125 0,-135.90625 0,-0.53125 -0.53125,0 -20.15625,0 0,-46.21875 20.15625,0 0.53125,0 0,-0.53125 0,-135.875 0,-0.0312 0,-0.0312 -3.875,-36.84375 -0.0312,-0.0625 0,-0.0625 -11.46875,-35.25 0,-0.0312 -0.0312,-0.0625 -18.53125,-32.09375 -0.0312,-0.0312 -0.0312,-0.0625 -24.78125,-27.53125 -0.0625,-0.0312 -0.0312,-0.0312 -29.96875,-21.78125 -0.0625,-0.0312 -0.0312,-0.0312 -33.875,-15.0625 -0.0312,-0.0312 -0.0625,0 -36.25,-7.71875 -0.0625,0 -0.0312,0 -18,0 0,-0.4375 0,-0.53125 -0.53125,0 -153.625,0 -0.53125,0 0,0.53125 0,20.125 -46.21875,0 0,-20.125 0,-0.53125 -0.53125,0 -153.625,0 -0.5,0 z m 1.03125,1.03125 152.5625,0 0,20.15625 0,0.53125 0.53125,0 47.28125,0 0.53125,0 0,-0.53125 0,-20.15625 152.5625,0 0,0.46875 0,0.5 0.53125,0 18.40625,0 36.25,7.71875 33.65625,14.96875 0.0937,0.0625 29.8125,21.65625 0.0625,0.0625 24.65625,27.375 0.0312,0.0625 0.0312,0.0312 18.4375,31.90625 0.0312,0.0937 11.375,35.03125 0,0.0312 3.875,36.78125 0,0.0312 0,135.34375 -20.15625,0 -0.53125,0 0,0.5 0,47.28125 0,0.53125 0.53125,0 20.15625,0 0,135.3125 0,0.0625 -3.875,36.78125 -11.375,35.03125 -0.0312,0.09375 -18.4375,31.90625 -0.0312,0.03125 -0.0312,0.0625 -24.65625,27.375 -29.875,21.71875 -0.0937,0.0625 -33.65625,15 -0.0312,0 -0.0625,0.0312 -36.15625,7.65625 -18.40625,0 -0.53125,0 0,0.53125 0,0.4375 -152.5625,0 0,-20.15625 0,-0.53125 -0.53125,0 -47.28125,0 -0.53125,0 0,0.53125 0,20.15625 -152.5625,0 0,-0.4375 0,-0.53125 -0.53125,0 -18.40625,0 -36.15625,-7.65625 -0.0937,-0.0312 -33.65625,-15 -0.0937,-0.0625 -29.875,-21.71875 -24.65625,-27.375 -0.0312,-0.0625 -0.0312,-0.03125 -18.40625,-31.90625 -11.4375,-35.125 -3.875,-36.78125 0,-0.0625 0,-135.3125 20.15625,0 0.53125,0 0,-0.53125 0,-47.28125 0,-0.5 -0.53125,0 -20.15625,0 0,-135.34375 0,-0.0312 3.875,-36.78125 0,-0.0312 11.4375,-35.125 18.40625,-31.90625 0.0312,-0.0312 0.0312,-0.0625 24.65625,-27.375 0.0625,-0.0625 29.8125,-21.65625 0.0937,-0.0625 33.65625,-14.96875 36.25,-7.71875 18.40625,0 0.53125,0 0,-0.5 0,-0.46875 z"
       id="path24"
       inkscape:connector-curvature="0" />
    <path
       style="font-size:medium;font-style:normal;font-variant:normal;font-weight:normal;font-stretch:normal;text-indent:0;text-align:start;text-decoration:none;line-height:normal;letter-spacing:normal;word-spacing:normal;text-transform:none;direction:ltr;block-progression:tb;writing-mode:lr-tb;text-anchor:start;baseline-shift:baseline;color:#000000;fill:#000000;fill-opacity:1;stroke:none;stroke-width:1.05040002;marker:none;visibility:visible;display:inline;overflow:visible;enable-background:accumulate;font-family:Sans;-inkscape-font-specification:Sans"
       d="m -630.34375,12.65625 0,0.5 0,41.375 0.53125,0 0,0.53125 20.65625,0 0.53125,0 0,-0.53125 0,-41.375 0,-0.5 -0.53125,0 -20.65625,0 -0.53125,0 z m 1.03125,1.03125 19.65625,0 0,40.3125 -19.65625,0 0,-40.3125 z"
       id="path26"
       inkscape:connector-curvature="0" />
    <path
       style="font-size:medium;font-style:normal;font-variant:normal;font-weight:normal;font-stretch:normal;text-indent:0;text-align:start;text-decoration:none;line-height:normal;letter-spacing:normal;word-spacing:normal;text-transform:none;direction:ltr;block-progression:tb;writing-mode:lr-tb;text-anchor:start;baseline-shift:baseline;color:#000000;fill:#000000;fill-opacity:1;stroke:none;stroke-width:1.05040002;marker:none;visibility:visible;display:inline;overflow:visible;enable-background:accumulate;font-family:Sans;-inkscape-font-specification:Sans"
       d="m -630.34375,-129.15625 0,0.53125 0,41.34375 0.53125,0 0,0.53125 20.65625,0 0.53125,0 0,-0.53125 0,-41.34375 0,-0.53125 -0.53125,0 -20.65625,0 -0.53125,0 z m 1.03125,1.0625 19.65625,0 0,40.28125 -19.65625,0 0,-40.28125 z"
       id="path28"
       inkscape:connector-curvature="0" />
    <path
       style="font-size:medium;font-style:normal;font-variant:normal;font-weight:normal;font-stretch:normal;text-indent:0;text-align:start;text-decoration:none;line-height:normal;letter-spacing:normal;word-spacing:normal;text-transform:none;direction:ltr;block-progression:tb;writing-mode:lr-tb;text-anchor:start;baseline-shift:baseline;color:#000000;fill:#000000;fill-opacity:1;stroke:none;stroke-width:1.05040002;marker:none;visibility:visible;display:inline;overflow:visible;enable-background:accumulate;font-family:Sans;-inkscape-font-specification:Sans"
       d="m -630.34375,-270.96875 0,0.53125 0,41.375 0.53125,0 0,0.5 20.65625,0 0.53125,0 0,-0.5 0,-41.375 0,-0.53125 -0.53125,0 -20.65625,0 -0.53125,0 z m 1.03125,1.0625 19.65625,0 0,40.3125 -19.65625,0 0,-40.3125 z"
       id="path30"
       inkscape:connector-curvature="0" />
    <path
       style="font-size:medium;font-style:normal;font-variant:normal;font-weight:normal;font-stretch:normal;text-indent:0;text-align:start;text-decoration:none;line-height:normal;letter-spacing:normal;word-spacing:normal;text-transform:none;direction:ltr;block-progression:tb;writing-mode:lr-tb;text-anchor:start;baseline-shift:baseline;color:#000000;fill:#000000;fill-opacity:1;stroke:none;stroke-width:1.05040002;marker:none;visibility:visible;display:inline;overflow:visible;enable-background:accumulate;font-family:Sans;-inkscape-font-specification:Sans"
       d="m -630.34375,-412.78125 0,0.53125 0,41.375 0.53125,0 0,0.53125 20.65625,0 0.53125,0 0,-0.53125 0,-41.375 0,-0.53125 -0.53125,0 -20.65625,0 -0.53125,0 z m 1.03125,1.0625 19.65625,0 0,40.3125 -19.65625,0 0,-40.3125 z"
       id="path32"
       inkscape:connector-curvature="0" />
    <path
       style="font-size:medium;font-style:normal;font-variant:normal;font-weight:normal;font-stretch:normal;text-indent:0;text-align:start;text-decoration:none;line-height:normal;letter-spacing:normal;word-spacing:normal;text-transform:none;direction:ltr;block-progression:tb;writing-mode:lr-tb;text-anchor:start;baseline-shift:baseline;color:#000000;fill:#000000;fill-opacity:1;stroke:none;stroke-width:1.05040002;marker:none;visibility:visible;display:inline;overflow:visible;enable-background:accumulate;font-family:Sans;-inkscape-font-specification:Sans"
       d="m -68.28125,-514.0625 0,0.53125 0,0.4375 -18,0 -0.0625,0 -0.0625,0 -36.25,7.71875 -0.0312,0 -0.0625,0.0312 -33.84375,15.0625 -0.0625,0.0312 -0.0312,0.0312 -30,21.78125 -0.0312,0.0312 -0.0312,0.0312 -24.8125,27.5625 -0.0312,0.0312 -0.0312,0.0625 -18.53125,32.0625 -0.0312,0.0625 0,0.0625 -11.46875,35.21875 0,0.0625 0,0.0625 -3.875,36.84375 0,0.0312 0,0.0312 0,135.90625 0,0.5 0.53125,0 20.125,0 0,46.21875 -20.125,0 -0.53125,0 0,0.53125 0,135.90625 0.53125,0 -0.53125,0.0625 3.875,36.84375 0,0.0625 0,0.03125 11.46875,35.25 0,0.0625 0.0312,0.03125 18.53125,32.09375 0.0312,0.0625 0.0312,0.03125 24.8125,27.53125 0.0312,0.0625 0.0312,0.0312 30,21.78125 0.0312,0.0312 0.0625,0 33.84375,15.09375 0.0625,0 0.0312,0.0312 36.25,7.6875 0.0625,0.0312 0.0625,0 18,0 0,0.4375 0,0.53125 0.53125,0 153.625,0 0.5,0 0,-0.53125 0,-20.15625 46.21875,0 0,20.15625 0,0.53125 0.53125,0 153.625,0 0.53125,0 0,-0.53125 0,-0.4375 18,0 0.0625,0 0.0312,-0.0312 36.25,-7.6875 0.0625,-0.0312 0.0625,0 33.84375,-15.09375 0.0625,0 0.0312,-0.0312 29.96875,-21.78125 0.0625,-0.0312 0.0312,-0.0625 24.78125,-27.53125 0.0625,-0.03125 0,-0.0625 18.53125,-32.09375 0.0312,-0.03125 0.0312,-0.0625 11.4375,-35.25 0.0312,-0.03125 0,-0.0625 3.875,-36.84375 0,-0.03125 0,-0.03125 0,-135.90625 0,-0.53125 -0.53125,0 -20.15625,0 0,-46.21875 20.15625,0 0.53125,0 0,-0.5 0,-135.90625 0,-0.0312 0,-0.0312 -3.875,-36.84375 0,-0.0625 -0.0312,-0.0625 -11.4375,-35.21875 -0.0312,-0.0625 -0.0312,-0.0625 -18.53125,-32.0625 0,-0.0625 -0.0625,-0.0312 -24.78125,-27.5625 -0.0312,-0.0312 -0.0625,-0.0312 -29.96875,-21.78125 -0.0312,-0.0312 -0.0625,-0.0312 -33.84375,-15.0625 -0.0625,-0.0312 -0.0625,0 -36.25,-7.71875 -0.0312,0 -0.0625,0 -18,0 0,-0.4375 0,-0.53125 -0.53125,0 -153.625,0 -0.53125,0 0,0.53125 0,20.15625 -46.21875,0 0,-20.15625 0,-0.53125 -0.5,0 -153.625,0 -0.53125,0 z M -67.25,-513 l 152.59375,0 0,20.15625 0,0.5 0.53125,0 47.25,0 0.53125,0 0,-0.5 0,-20.15625 152.5625,0 0,0.4375 0,0.53125 0.53125,0 18.53125,0 36.03125,7.65625 0.0937,0.0312 33.65625,14.96875 0.0937,0.0625 29.8125,21.65625 24.71875,27.4375 0.0312,0.0625 0.0312,0.0312 18.4375,31.90625 0.0312,0.0937 11.375,35.03125 0,0.0312 3.875,36.78125 0,0.0625 0,135.3125 -20.15625,0 -0.5,0 0,0.53125 0,47.25 0,0.53125 0.5,0 20.15625,0 0,135.3125 0,0.0625 -3.875,36.78125 -11.375,35.03125 -18.53125,32.09375 -24.625,27.375 -0.0312,0.0312 -0.0625,0.0625 -29.90625,21.6875 -33.65625,15 -0.0312,0 -0.0625,0.0312 -36.15625,7.65625 -18.40625,0 -0.53125,0 0,0.53125 0,0.4375 -152.5625,0 0,-20.15625 0,-0.53125 -0.53125,0 -47.25,0 -0.53125,0 0,0.53125 0,20.15625 -152.59375,0 0,-0.4375 0,-0.53125 -0.5,0 -18.4375,0 -36.125,-7.65625 -0.0312,0 -33.75,-15.03125 -29.875,-21.6875 -0.0625,-0.0625 -0.0312,-0.0312 -24.65625,-27.375 -18.46875,-31.96875 0,-0.03125 -11.4375,-35.125 -3.875,-36.78125 0,-0.0625 0,-135.3125 20.15625,0 0.53125,0 0,-0.53125 0,-47.25 0,-0.53125 -0.53125,0 -20.15625,0 0,-135.3125 0,-0.0625 3.875,-36.78125 0,-0.0312 11.4375,-35.125 18.40625,-31.90625 0.0625,-0.0937 24.75,-27.4375 29.78125,-21.65625 0.0937,-0.0625 33.75,-15 0.0312,0 36.03125,-7.65625 18.53125,0 0.5,0 0,-0.53125 0,-0.4375 z"
       id="path34"
       inkscape:connector-curvature="0" />
    <path
       style="font-size:medium;font-style:normal;font-variant:normal;font-weight:normal;font-stretch:normal;text-indent:0;text-align:start;text-decoration:none;line-height:normal;letter-spacing:normal;word-spacing:normal;text-transform:none;direction:ltr;block-progression:tb;writing-mode:lr-tb;text-anchor:start;baseline-shift:baseline;color:#000000;fill:#000000;fill-opacity:1;stroke:none;stroke-width:1.05040002;marker:none;visibility:visible;display:inline;overflow:visible;enable-background:accumulate;font-family:Sans;-inkscape-font-specification:Sans"
       d="m -82.6875,-158.78125 -29,6.1875 -0.0625,0 -0.0312,0.0312 -27.09375,12.0625 -0.0625,0 -0.0312,0.0312 -24,17.4375 L -163,-123 l -0.0312,0.0312 -19.84375,22.03125 -0.0312,0.0625 -0.0312,0.0312 -14.8125,25.6875 -0.0312,0.03125 -0.0312,0.0625 -9.15625,28.1875 0,0.0625 -0.0312,0.0625 -3.09375,29.46875 0.53125,0.0625 -0.53125,0.0625 3.09375,29.46875 0.0312,0.0625 0,0.03125 9.15625,28.21875 0.0312,0.03125 0.0312,0.0625 14.8125,25.65625 0.0312,0.0625 0.0312,0.03125 19.84375,22.03125 0.0312,0.0625 0.0312,0.03125 24,17.40625 0.0312,0.0312 0.0625,0.0312 27.09375,12.0625 0.0312,0.0312 0.0625,0 29,6.15625 0.0625,0 0.03125,0 29.65625,0 0.0625,0 0.03125,0 29,-6.15625 0.0625,0 0.0625,-0.0312 27.0625,-12.0625 0.0625,-0.0312 L 3.4375,106 27.4375,88.59375 27.46875,88.5625 27.53125,88.5 47.34375,66.46875 47.375,66.4375 47.40625,66.375 62.25,40.71875 l 0.03125,-0.0625 0,-0.03125 9.15625,-28.21875 0.03125,-0.03125 0,-0.0625 3.09375,-29.46875 0,-0.0625 0,-0.0625 -3.09375,-29.46875 0,-0.0625 -0.03125,-0.0625 -9.15625,-28.1875 0,-0.0625 -0.03125,-0.03125 -14.84375,-25.6875 -0.03125,-0.0312 -0.03125,-0.0625 -19.8125,-22.03125 -0.0625,-0.0312 -0.03125,-0.0312 -24,-17.4375 -0.03125,-0.0312 -0.0625,0 -27.0625,-12.0625 -0.0625,-0.0312 -0.0625,0 -29,-6.1875 -0.03125,0 -0.0625,0 -29.65625,0 -0.03125,0 -0.0625,0 z m 0.09375,1.0625 29.65625,0 28.78125,6.125 0.09375,0.0312 26.90625,11.96875 23.90625,17.34375 0.0625,0.0625 19.6875,21.875 0.03125,0.0625 0.03125,0.0312 14.71875,25.46875 0,0.03125 9.15625,28.1875 3.09375,29.25 0,0.0625 0,0.0625 -3.09375,29.25 -9.15625,28.1875 -14.71875,25.5 L 46.53125,65.8125 46.5,65.875 26.8125,87.71875 l -23.875,17.375 -0.09375,0.0625 -26.90625,11.96875 -0.09375,0.0312 -28.875,6.125 -29.4375,0 -28.90625,-6.125 -0.0937,-0.0312 -26.875,-11.96875 -0.0937,-0.0625 -23.8125,-17.28125 -0.0625,-0.0625 -0.0312,-0.03125 -19.6875,-21.84375 -0.0625,-0.09375 -14.71875,-25.5 -0.0312,-0.09375 -9.09375,-28 -3.09375,-29.34375 0,-0.0625 0,-0.0625 3.09375,-29.34375 0,-0.03125 9.09375,-27.96875 14.75,-25.59375 0.0312,-0.0312 0.0312,-0.0625 19.78125,-21.9375 23.90625,-17.34375 26.875,-11.96875 0.0937,-0.0312 28.78125,-6.125 z"
       id="path36"
       inkscape:connector-curvature="0" />
    <path
       style="font-size:medium;font-style:normal;font-variant:normal;font-weight:normal;font-stretch:normal;text-indent:0;text-align:start;text-decoration:none;line-height:normal;letter-spacing:normal;word-spacing:normal;text-transform:none;direction:ltr;block-progression:tb;writing-mode:lr-tb;text-anchor:start;baseline-shift:baseline;color:#000000;fill:#000000;fill-opacity:1;stroke:none;stroke-width:1.05040002;marker:none;visibility:visible;display:inline;overflow:visible;enable-background:accumulate;font-family:Sans;-inkscape-font-specification:Sans"
       d="m -82.625,-477.84375 -0.0625,0.0312 -29,6.15625 -0.0625,0 -0.0312,0.0312 -27.09375,12.0625 -0.0625,0 -0.0312,0.0625 -24,17.40625 -0.0312,0.0312 -0.0312,0.0312 L -182.875,-420 l -0.0312,0.0625 -0.0312,0.0312 -14.8125,25.6875 -0.0312,0.0312 -0.0312,0.0625 -9.15625,28.1875 0,0.0625 -0.0312,0.0625 -3.09375,29.46875 0.53125,0.0625 -0.53125,0.0625 3.09375,29.46875 0.0312,0.0625 0,0.0625 9.15625,28.1875 0.0312,0.0312 0.0312,0.0625 14.8125,25.6875 0.0312,0.0312 0.0312,0.0312 19.84375,22.03125 0.0312,0.0625 0.0312,0.0312 24,17.40625 0.0312,0.0312 0.0625,0.0312 27.09375,12.0625 0.0312,0.0312 0.0625,0 29,6.15625 0.0625,0.0312 0.03125,0 29.65625,0 0.0625,0 0.03125,-0.0312 29,-6.15625 0.0625,0 0.0625,-0.0312 27.0625,-12.0625 0.0625,-0.0312 0.03125,-0.0312 24,-17.40625 0.03125,-0.0312 0.0625,-0.0625 19.8125,-22.03125 0.03125,-0.0312 0.03125,-0.0312 14.84375,-25.6875 0.03125,-0.0625 0,-0.0312 9.15625,-28.1875 0.03125,-0.0625 0,-0.0625 3.09375,-29.46875 0,-0.0625 0,-0.0625 -3.09375,-29.46875 0,-0.0625 -0.03125,-0.0625 -9.15625,-28.1875 0,-0.0625 -0.03125,-0.0312 -14.84375,-25.6875 -0.03125,-0.0312 -0.03125,-0.0625 -19.8125,-22.03125 -0.0625,-0.0312 -0.03125,-0.0312 -24,-17.40625 -0.03125,-0.0625 -0.0625,0 -27.0625,-12.0625 -0.0625,-0.0312 -0.0625,0 -29,-6.15625 -0.03125,-0.0312 -0.0625,0 -29.65625,0 -0.03125,0 z m 0.03125,1.0625 29.65625,0 28.78125,6.125 0.09375,0.0312 26.90625,11.96875 23.90625,17.34375 0.0625,0.0625 19.6875,21.875 0.03125,0.0625 0.03125,0.0312 14.71875,25.46875 0,0.0312 9.15625,28.1875 3.09375,29.25 0,0.125 -3.09375,29.25 -9.15625,28.1875 -14.71875,25.5 -0.03125,0.0312 -0.03125,0.0625 -19.6875,21.875 -0.0625,0.0625 -23.8125,17.28125 -0.09375,0.0625 -26.90625,11.96875 -0.09375,0.0312 -28.875,6.125 -29.4375,0 -28.90625,-6.125 -0.0937,-0.0312 -26.875,-11.96875 -0.0937,-0.0625 -23.8125,-17.28125 -19.78125,-21.9375 -0.0625,-0.0937 -14.71875,-25.5 -0.0312,-0.0937 -9.09375,-27.96875 0,-0.0312 -3.09375,-29.34375 0,-0.0625 0,-0.0625 3.09375,-29.34375 0,-0.0312 9.09375,-27.96875 14.75,-25.59375 0.0312,-0.0312 0.0312,-0.0625 19.78125,-21.9375 23.90625,-17.34375 26.875,-11.96875 0.0937,-0.0312 28.78125,-6.125 z"
       id="path38"
       inkscape:connector-curvature="0" />
    <path
       style="font-size:medium;font-style:normal;font-variant:normal;font-weight:normal;font-stretch:normal;text-indent:0;text-align:start;text-decoration:none;line-height:normal;letter-spacing:normal;word-spacing:normal;text-transform:none;direction:ltr;block-progression:tb;writing-mode:lr-tb;text-anchor:start;baseline-shift:baseline;color:#000000;fill:#000000;fill-opacity:1;stroke:none;stroke-width:1.05040002;marker:none;visibility:visible;display:inline;overflow:visible;enable-background:accumulate;font-family:Sans;-inkscape-font-specification:Sans"
       d="m 98.625,-460.875 0,0.5 0,567.21875 0.53125,0 0,0.53125 20.6875,0 0.53125,0 0,-0.53125 0,-567.21875 0,-0.5 -0.53125,0 -20.6875,0 -0.53125,0 z m 1.0625,1.03125 19.625,0 0,566.1875 -19.625,0 0,-566.1875 z"
       id="path40"
       inkscape:connector-curvature="0" />
    <path
       style="font-size:medium;font-style:normal;font-variant:normal;font-weight:normal;font-stretch:normal;text-indent:0;text-align:start;text-decoration:none;line-height:normal;letter-spacing:normal;word-spacing:normal;text-transform:none;direction:ltr;block-progression:tb;writing-mode:lr-tb;text-anchor:start;baseline-shift:baseline;color:#000000;fill:#000000;fill-opacity:1;stroke:none;stroke-width:1.05040002;marker:none;visibility:visible;display:inline;overflow:visible;enable-background:accumulate;font-family:Sans;-inkscape-font-specification:Sans"
       d="m 271.8125,-158.78125 -29,6.1875 -0.0312,0 -0.0625,0.0312 -27.09375,12.0625 -0.0312,0 -0.0625,0.0312 -23.96875,17.4375 -0.0625,0.0312 -0.0312,0.0312 -19.84375,22.03125 -0.0312,0.0625 -0.0312,0.0312 -14.8125,25.6875 -0.0312,0.03125 0,0.0625 -9.1875,28.1875 0,0.0625 0,0.0625 -3.09375,29.46875 0.5,0.0625 -0.5,0.0625 3.09375,29.46875 0,0.0625 0,0.03125 9.1875,28.21875 0,0.03125 0.0312,0.0625 14.8125,25.65625 0.0312,0.0625 0.0312,0.03125 19.84375,22.03125 0.0312,0.0625 0.0625,0.03125 23.96875,17.40625 0.0625,0.0312 0.0312,0.0312 27.09375,12.0625 0.0625,0.0312 0.0312,0 29,6.15625 0.0625,0 0.0625,0 29.625,0 0.0625,0 0.0625,0 29,-6.15625 0.0312,0 0.0625,-0.0312 27.09375,-12.0625 0.0312,-0.0312 L 357.96875,106 381.9375,88.59375 382,88.5625 382.03125,88.5 401.875,66.46875 l 0.0312,-0.03125 0.0312,-0.0625 14.8125,-25.65625 0.0312,-0.0625 0,-0.03125 9.1875,-28.21875 0,-0.03125 0,-0.0625 3.09375,-29.46875 0.0312,-0.0625 -0.0312,-0.0625 -3.09375,-29.46875 0,-0.0625 0,-0.0625 -9.1875,-28.1875 0,-0.0625 -0.0312,-0.03125 -14.8125,-25.6875 -0.0312,-0.0312 -0.0312,-0.0625 -19.84375,-22.03125 L 382,-123 l -0.0625,-0.0312 -23.96875,-17.4375 -0.0625,-0.0312 -0.0312,0 -27.09375,-12.0625 -0.0625,-0.0312 -0.0312,0 -29,-6.1875 -0.0625,0 -0.0625,0 -29.625,0 -0.0625,0 -0.0625,0 z m 0.125,1.0625 29.625,0 28.78125,6.125 0.0312,0 26.96875,12 23.90625,17.34375 0.0625,0.0625 19.71875,21.875 0.0312,0.0625 0.0312,0.0312 14.6875,25.46875 0,0.03125 9.15625,28.0625 0,0.03125 3.09375,29.34375 0,0.0625 0,0.0625 -3.09375,29.34375 -9.15625,28.09375 -14.6875,25.5 -0.0312,0.03125 -0.0312,0.0625 -19.71875,21.84375 -23.875,17.375 -0.0937,0.0625 -26.96875,12 -0.0312,0 -28.875,6.125 -29.4375,0 -28.875,-6.125 -0.0312,0 -26.96875,-12 -0.0937,-0.0625 -23.875,-17.375 -19.71875,-21.84375 -0.0312,-0.0625 -0.0312,-0.03125 -14.6875,-25.5 -9.15625,-28.09375 -3.09375,-29.34375 0,-0.0625 0,-0.0625 3.09375,-29.34375 0,-0.03125 9.15625,-28.0625 0,-0.03125 14.6875,-25.46875 0.0312,-0.0312 0.0312,-0.0625 19.71875,-21.875 0.0625,-0.0625 23.90625,-17.34375 26.96875,-12 0.0312,0 28.78125,-6.125 z"
       id="path42"
       inkscape:connector-curvature="0" />
    <path
       style="font-size:medium;font-style:normal;font-variant:normal;font-weight:normal;font-stretch:normal;text-indent:0;text-align:start;text-decoration:none;line-height:normal;letter-spacing:normal;word-spacing:normal;text-transform:none;direction:ltr;block-progression:tb;writing-mode:lr-tb;text-anchor:start;baseline-shift:baseline;color:#000000;fill:#000000;fill-opacity:1;stroke:none;stroke-width:1.05040002;marker:none;visibility:visible;display:inline;overflow:visible;enable-background:accumulate;font-family:Sans;-inkscape-font-specification:Sans"
       d="m 271.875,-477.84375 -0.0625,0.0312 -29,6.15625 -0.0312,0 -0.0625,0.0312 -27.09375,12.0625 -0.0312,0 -0.0625,0.0625 -23.96875,17.40625 -0.0625,0.0312 -0.0312,0.0312 L 171.625,-420 l -0.0312,0.0625 -0.0312,0.0312 -14.8125,25.6875 -0.0312,0.0312 0,0.0625 -9.1875,28.1875 0,0.0625 0,0.0625 -3.09375,29.46875 0.5,0.0625 -0.5,0.0625 3.09375,29.46875 0,0.0625 0,0.0625 9.1875,28.1875 0,0.0312 0.0312,0.0625 14.8125,25.6875 0.0312,0.0312 0.0312,0.0312 19.84375,22.03125 0.0312,0.0625 0.0625,0.0312 23.96875,17.40625 0.0625,0.0312 0.0312,0.0312 27.09375,12.0625 0.0625,0.0312 0.0312,0 29,6.15625 0.0625,0.0312 0.0625,0 29.625,0 0.0625,0 0.0625,-0.0312 29,-6.15625 0.0312,0 0.0625,-0.0312 L 357.875,-213 l 0.0312,-0.0312 0.0625,-0.0312 23.96875,-17.40625 0.0625,-0.0312 0.0312,-0.0625 19.84375,-22.03125 0.0312,-0.0312 0.0312,-0.0312 14.8125,-25.6875 0.0312,-0.0625 0,-0.0312 9.1875,-28.1875 0,-0.0625 0,-0.0625 3.09375,-29.46875 0.0312,-0.0625 -0.0312,-0.0625 -3.09375,-29.46875 0,-0.0625 0,-0.0625 -9.1875,-28.1875 0,-0.0625 -0.0312,-0.0312 -14.8125,-25.6875 -0.0312,-0.0312 -0.0312,-0.0625 -19.84375,-22.03125 -0.0312,-0.0312 -0.0625,-0.0312 -23.96875,-17.40625 -0.0625,-0.0625 -0.0312,0 -27.09375,-12.0625 -0.0625,-0.0312 -0.0312,0 -29,-6.15625 -0.0625,-0.0312 -0.0625,0 -29.625,0 -0.0625,0 z m 0.0625,1.0625 29.625,0 28.78125,6.125 0.0312,0 26.96875,12 23.90625,17.34375 0.0625,0.0625 19.71875,21.875 0.0312,0.0625 0.0312,0.0312 14.6875,25.46875 0,0.0312 9.15625,28.0625 0,0.0312 3.09375,29.34375 0,0.125 -3.09375,29.34375 0,0.0312 -9.15625,28.0625 -14.6875,25.5 -0.0312,0.0312 -0.0312,0.0625 -19.71875,21.875 -0.0625,0.0625 -23.8125,17.28125 -0.0937,0.0625 -26.96875,12 -0.0312,0 -28.875,6.125 -29.4375,0 -28.875,-6.125 -0.0312,0 -26.96875,-12 -0.0937,-0.0625 -23.8125,-17.28125 -0.0625,-0.0625 -19.71875,-21.875 -0.0312,-0.0625 -0.0312,-0.0312 -14.6875,-25.5 -9.15625,-28.0625 0,-0.0312 -3.09375,-29.34375 0,-0.0625 0,-0.0625 3.09375,-29.34375 0,-0.0312 9.15625,-28.0625 0,-0.0312 14.6875,-25.46875 0.0312,-0.0312 0.0312,-0.0625 19.71875,-21.875 0.0625,-0.0625 23.90625,-17.34375 26.96875,-12 0.0312,0 28.78125,-6.125 z"
       id="path44"
       inkscape:connector-curvature="0" />
    <path
       style="font-size:medium;font-style:normal;font-variant:normal;font-weight:normal;font-stretch:normal;text-indent:0;text-align:start;text-decoration:none;line-height:normal;letter-spacing:normal;word-spacing:normal;text-transform:none;direction:ltr;block-progression:tb;writing-mode:lr-tb;text-anchor:start;baseline-shift:baseline;color:#000000;fill:#000000;fill-opacity:1;stroke:none;stroke-width:1.05040002;marker:none;visibility:visible;display:inline;overflow:visible;enable-background:accumulate;font-family:Sans;-inkscape-font-specification:Sans"
       d="m 461.59375,153.1875 0,0.53125 -0.5,0 0,20.15625 -213.65625,0 -0.53125,0 0,0.53125 0,667.65625 0,0.53125 0.53125,0 213.65625,0 0,20.15625 0,0.53125 0.5,0 20.6875,0 0.53125,0 0,-0.53125 0,-20.15625 213.65625,0 0.53125,0 0,-0.53125 0,-667.65625 0,-0.53125 -0.53125,0 -213.65625,0 0,-20.15625 0,-0.53125 -0.53125,0 -20.6875,0 z m 0.53125,1.0625 19.625,0 0,20.15625 0,0.53125 0.53125,0 213.65625,0 0,666.59375 -213.65625,0 -0.53125,0 0,0.53125 0,20.15625 -19.625,0 0,-20.15625 0,-0.53125 -0.53125,0 -213.65625,0 0,-666.59375 213.65625,0 0.53125,0 0,-0.53125 0,-20.15625 z"
       id="path46"
       inkscape:connector-curvature="0" />
    <path
       style="font-size:medium;font-style:normal;font-variant:normal;font-weight:normal;font-stretch:normal;text-indent:0;text-align:start;text-decoration:none;line-height:normal;letter-spacing:normal;word-spacing:normal;text-transform:none;direction:ltr;block-progression:tb;writing-mode:lr-tb;text-anchor:start;baseline-shift:baseline;color:#000000;fill:#000000;fill-opacity:1;stroke:none;stroke-width:1.05040002;marker:none;visibility:visible;display:inline;overflow:visible;enable-background:accumulate;font-family:Sans;-inkscape-font-specification:Sans"
       d="m 654.375,-514.0625 0,0.53125 0,0.4375 -18,0 -0.0312,0 -0.0625,0 -36.25,7.71875 -0.0625,0 -0.0312,0.0312 -33.875,15.0625 -0.0312,0.0312 -0.0625,0.0312 L 536,-468.4375 l -0.0312,0.0312 -0.0625,0.0312 -24.78125,27.5625 -0.0312,0.0312 -0.0312,0.0625 -18.53125,32.0625 -0.0312,0.0625 0,0.0625 -11.46875,35.21875 0,0.0625 -0.0312,0.0625 -3.875,36.84375 0,0.0312 0,0.0312 0,135.90625 0,0.5 0.53125,0 20.15625,0 0,46.21875 -20.15625,0 -0.53125,0 0,0.53125 0,135.90625 0.53125,0 -0.53125,0.0625 3.875,36.84375 0.0312,0.0625 0,0.03125 11.46875,35.25 0,0.0625 0.0312,0.03125 18.53125,32.09375 0.0312,0.0625 0.0312,0.03125 24.78125,27.53125 0.0625,0.0625 0.0312,0.0312 29.96875,21.78125 0.0625,0.0312 0.0312,0 33.875,15.09375 0.0312,0 0.0625,0.0312 36.25,7.6875 0.0625,0.0312 0.0312,0 18,0 0,0.4375 0,0.53125 0.53125,0 153.625,0 0.53125,0 0,-0.53125 0,-20.15625 46.21875,0 0,20.15625 0,0.53125 0.53125,0 153.625,0 0.5,0 0,-0.53125 0,-0.4375 18.0313,0 0.031,0 0.062,-0.0312 36.25,-7.6875 0.062,-0.0312 0.031,0 33.875,-15.09375 0.031,0 0.062,-0.0312 29.9688,-21.78125 0.031,-0.0312 0.062,-0.0625 24.7813,-27.53125 0.031,-0.03125 0.031,-0.0625 18.5313,-32.09375 0.031,-0.03125 0,-0.0625 11.4687,-35.25 0,-0.03125 0.031,-0.0625 3.8437,-36.84375 0.031,-0.03125 0,-0.03125 0,-135.90625 0,-0.53125 -0.5313,0 -20.1563,0 0,-46.21875 20.1563,0 0.5313,0 0,-0.5 0,-135.90625 0,-0.0312 -0.031,-0.0312 -3.8437,-36.84375 -0.031,-0.0625 0,-0.0625 -11.4687,-35.21875 0,-0.0625 -0.031,-0.0625 -18.5313,-32.0625 -0.031,-0.0625 -0.031,-0.0312 -24.7813,-27.5625 -0.062,-0.0312 -0.031,-0.0312 -29.9688,-21.78125 -0.062,-0.0312 -0.031,-0.0312 -33.875,-15.0625 -0.031,-0.0312 -0.062,0 -36.25,-7.71875 -0.062,0 -0.031,0 -18.0313,0 0,-0.4375 0,-0.53125 -0.5,0 -153.625,0 -0.53125,0 0,0.53125 0,20.15625 -46.21875,0 0,-20.15625 0,-0.53125 -0.53125,0 -153.625,0 -0.53125,0 z m 1.0625,1.0625 152.5625,0 0,20.15625 0,0.5 0.53125,0 47.28125,0 0.53125,0 0,-0.5 0,-20.15625 152.56245,0 0,0.4375 0,0.53125 0.5313,0 18.5313,0 36.0312,7.65625 0.094,0.0312 33.6562,14.96875 0.094,0.0625 29.8124,21.65625 0.063,0.0625 24.6562,27.375 0.031,0.0625 0.031,0.0312 18.4063,31.90625 11.4374,35.125 0,0.0312 3.875,36.78125 0,0.0625 0,135.3125 -20.1562,0 -0.5312,0 0,0.53125 0,47.25 0,0.53125 0.5312,0 20.1562,0 0,135.3125 0,0.0625 -3.875,36.78125 -11.4374,35.125 0,0.03125 -18.4688,31.96875 -24.6562,27.375 -29.9688,21.78125 -33.6562,15 -0.031,0 -0.062,0.0312 -36.1562,7.65625 -18.4063,0 -0.5313,0 0,0.53125 0,0.4375 -152.56245,0 0,-20.15625 0,-0.53125 -0.53125,0 -47.28125,0 -0.53125,0 0,0.53125 0,20.15625 -152.5625,0 0,-0.4375 0,-0.53125 -0.53125,0 -18.40625,0 -36.15625,-7.65625 -0.0937,-0.0312 -33.65625,-15 L 536.625,114.0625 511.96875,86.6875 493.4375,54.59375 482.0625,19.5625 l -3.875,-36.78125 0,-0.0625 0,-135.3125 20.15625,0 0.53125,0 0,-0.53125 0,-47.25 0,-0.53125 -0.53125,0 -20.15625,0 0,-135.3125 0,-0.0625 3.875,-36.78125 0,-0.0312 11.375,-35.03125 0.0312,-0.0937 18.4375,-31.90625 0.0312,-0.0312 0.0312,-0.0625 24.65625,-27.375 0.0625,-0.0625 29.8125,-21.65625 0.0937,-0.0625 33.65625,-14.96875 0.0937,-0.0312 36.03125,-7.65625 18.53125,0 0.53125,0 0,-0.53125 0,-0.4375 z"
       id="path48"
       inkscape:connector-curvature="0" />
    <path
       style="font-size:medium;font-style:normal;font-variant:normal;font-weight:normal;font-stretch:normal;text-indent:0;text-align:start;text-decoration:none;line-height:normal;letter-spacing:normal;word-spacing:normal;text-transform:none;direction:ltr;block-progression:tb;writing-mode:lr-tb;text-anchor:start;baseline-shift:baseline;color:#000000;fill:#000000;fill-opacity:1;stroke:none;stroke-width:1.05040002;marker:none;visibility:visible;display:inline;overflow:visible;enable-background:accumulate;font-family:Sans;-inkscape-font-specification:Sans"
       d="m 639.96875,-158.78125 -28.96875,6.1875 -0.0625,0 -0.0625,0.0312 -27.0625,12.0625 -0.0625,0 -0.0312,0.0312 -24,17.4375 -0.0312,0.0312 -0.0625,0.0312 -19.8125,22.03125 -0.0312,0.0625 -0.0312,0.0312 -14.84375,25.6875 -0.0312,0.03125 0,0.0625 -9.15625,28.1875 -0.0312,0.0625 0,0.0625 -3.09375,29.46875 0.53125,0.0625 -0.53125,0.0625 3.09375,29.46875 0,0.0625 0.0312,0.03125 9.15625,28.21875 0,0.03125 0.0312,0.0625 14.84375,25.65625 0.0312,0.0625 0.0312,0.03125 19.8125,22.03125 0.0625,0.0625 0.0312,0.03125 24,17.40625 0.0312,0.0312 0.0625,0.0312 27.0625,12.0625 0.0625,0.0312 0.0625,0 28.96875,6.15625 0.0625,0 0.0625,0 29.65625,0 0.0312,0 0.0625,0 29,-6.15625 0.0625,0 0.0312,-0.0312 27.09375,-12.0625 0.0625,-0.0312 0.0312,-0.0312 23.96875,-17.40625 0.0625,-0.03125 0.0312,-0.0625 19.84375,-22.03125 0.0312,-0.03125 0.0312,-0.0625 14.8125,-25.65625 0.0312,-0.0625 0.0312,-0.03125 9.15625,-28.21875 0,-0.03125 0.0312,-0.0625 3.09375,-29.46875 0,-0.0625 0,-0.0625 -3.09375,-29.46875 -0.0312,-0.0625 0,-0.0625 -9.15625,-28.1875 -0.0312,-0.0625 -0.0312,-0.03125 -14.8125,-25.6875 -0.0312,-0.0312 -0.0312,-0.0625 -19.84375,-22.03125 -0.0312,-0.0312 -0.0625,-0.0312 -23.96875,-17.4375 -0.0312,-0.0312 -0.0625,0 -27.09375,-12.0625 -0.0312,-0.0312 -0.0625,0 -29,-6.1875 -0.0625,0 -0.0312,0 -29.65625,0 -0.0625,0 -0.0625,0 z m 0.125,1.0625 29.65625,0 28.78125,6.125 0.0937,0.0312 26.875,11.96875 23.90625,17.34375 19.78125,21.9375 0.0312,0.0625 0.0312,0.0312 14.75,25.59375 9.09375,27.96875 0,0.03125 3.09375,29.34375 0,0.0625 0,0.0625 -3.09375,29.34375 -9.09375,28 -0.0312,0.09375 -14.71875,25.5 -0.0312,0.03125 -0.0312,0.0625 -19.6875,21.84375 -0.0937,0.09375 -23.8125,17.28125 -0.0937,0.0625 -26.875,11.96875 -0.0937,0.0312 -28.90625,6.125 -29.4375,0 -28.875,-6.125 -0.0937,-0.0312 -26.90625,-11.96875 -0.0937,-0.0625 -23.875,-17.375 -19.6875,-21.84375 -0.0312,-0.0625 -0.0312,-0.03125 -14.71875,-25.5 -9.15625,-28.1875 -3.09375,-29.25 0,-0.0625 0,-0.0625 3.09375,-29.25 9.15625,-28.1875 0,-0.03125 14.71875,-25.46875 0.0625,-0.0937 19.6875,-21.875 0.0625,-0.0625 23.90625,-17.34375 26.90625,-11.96875 0.0937,-0.0312 28.78125,-6.125 z"
       id="path50"
       inkscape:connector-curvature="0" />
    <path
       style="font-size:medium;font-style:normal;font-variant:normal;font-weight:normal;font-stretch:normal;text-indent:0;text-align:start;text-decoration:none;line-height:normal;letter-spacing:normal;word-spacing:normal;text-transform:none;direction:ltr;block-progression:tb;writing-mode:lr-tb;text-anchor:start;baseline-shift:baseline;color:#000000;fill:#000000;fill-opacity:1;stroke:none;stroke-width:1.05040002;marker:none;visibility:visible;display:inline;overflow:visible;enable-background:accumulate;font-family:Sans;-inkscape-font-specification:Sans"
       d="m 640.03125,-477.84375 -0.0625,0.0312 -28.96875,6.15625 -0.0625,0 -0.0625,0.0312 -27.0625,12.0625 -0.0625,0 -0.0312,0.0625 -24,17.40625 -0.0312,0.0312 -0.0625,0.0312 -19.8125,22.03125 -0.0312,0.0625 -0.0312,0.0312 -14.84375,25.6875 -0.0312,0.0312 0,0.0625 -9.15625,28.1875 -0.0312,0.0625 0,0.0625 -3.09375,29.46875 0.53125,0.0625 -0.53125,0.0625 3.09375,29.46875 0,0.0625 0.0312,0.0625 9.15625,28.1875 0,0.0312 0.0312,0.0625 14.84375,25.6875 0.0312,0.0312 0.0312,0.0312 19.8125,22.03125 0.0625,0.0625 0.0312,0.0312 24,17.40625 0.0312,0.0312 0.0625,0.0312 27.0625,12.0625 0.0625,0.0312 0.0625,0 28.96875,6.15625 0.0625,0.0312 0.0625,0 29.65625,0 0.0312,0 0.0625,-0.0312 29,-6.15625 0.0625,0 0.0312,-0.0312 27.09375,-12.0625 0.0625,-0.0312 0.0312,-0.0312 23.96875,-17.40625 0.0625,-0.0312 0.0312,-0.0625 19.84375,-22.03125 0.0312,-0.0312 0.0312,-0.0312 14.8125,-25.6875 0.0312,-0.0625 0.0312,-0.0312 9.15625,-28.1875 0,-0.0625 0.0312,-0.0625 3.09375,-29.46875 0,-0.0625 0,-0.0625 -3.09375,-29.46875 -0.0312,-0.0625 0,-0.0625 -9.15625,-28.1875 -0.0312,-0.0625 -0.0312,-0.0312 -14.8125,-25.6875 -0.0312,-0.0312 -0.0312,-0.0625 -19.84375,-22.03125 -0.0312,-0.0312 -0.0625,-0.0312 L 726.125,-459.5 l -0.0312,-0.0625 -0.0625,0 -27.09375,-12.0625 -0.0312,-0.0312 -0.0625,0 -29,-6.15625 -0.0625,-0.0312 -0.0312,0 -29.65625,0 -0.0625,0 z m 0.0625,1.0625 29.65625,0 28.78125,6.125 0.0937,0.0312 26.875,11.96875 23.90625,17.34375 19.78125,21.9375 0.0312,0.0625 0.0312,0.0312 14.75,25.59375 9.09375,27.96875 0,0.0312 3.09375,29.34375 0,0.125 -3.09375,29.34375 0,0.0312 L 784,-278.875 l -0.0312,0.0937 -14.71875,25.5 -0.0312,0.0312 -0.0312,0.0625 -19.78125,21.9375 -23.8125,17.28125 -0.0937,0.0625 -26.875,11.96875 -0.0937,0.0312 -28.90625,6.125 -29.4375,0 -28.875,-6.125 -0.0937,-0.0312 -26.90625,-11.96875 -0.0937,-0.0625 -23.8125,-17.28125 -0.0625,-0.0625 -19.6875,-21.875 -0.0312,-0.0625 -0.0312,-0.0312 -14.71875,-25.5 -9.15625,-28.1875 -3.09375,-29.25 0,-0.0625 0,-0.0625 3.09375,-29.25 9.15625,-28.1875 0,-0.0312 14.71875,-25.46875 0.0625,-0.0937 19.6875,-21.875 0.0625,-0.0625 23.90625,-17.34375 26.90625,-11.96875 0.0937,-0.0312 28.78125,-6.125 z"
       id="path52"
       inkscape:connector-curvature="0" />
    <path
       style="font-size:medium;font-style:normal;font-variant:normal;font-weight:normal;font-stretch:normal;text-indent:0;text-align:start;text-decoration:none;line-height:normal;letter-spacing:normal;word-spacing:normal;text-transform:none;direction:ltr;block-progression:tb;writing-mode:lr-tb;text-anchor:start;baseline-shift:baseline;color:#000000;fill:#000000;fill-opacity:1;stroke:none;stroke-width:1.05040002;marker:none;visibility:visible;display:inline;overflow:visible;enable-background:accumulate;font-family:Sans;-inkscape-font-specification:Sans"
       d="m 821.3125,-460.875 0,0.5 0,567.21875 0.53125,0 0,0.53125 20.65625,0 0.53125,0 0,-0.53125 0,-567.21875 0,-0.5 -0.53125,0 -20.65625,0 -0.53125,0 z m 1.03125,1.03125 19.65625,0 0,566.1875 -19.65625,0 0,-566.1875 z"
       id="path54"
       inkscape:connector-curvature="0" />
    <path
       style="font-size:medium;font-style:normal;font-variant:normal;font-weight:normal;font-stretch:normal;text-indent:0;text-align:start;text-decoration:none;line-height:normal;letter-spacing:normal;word-spacing:normal;text-transform:none;direction:ltr;block-progression:tb;writing-mode:lr-tb;text-anchor:start;baseline-shift:baseline;color:#000000;fill:#000000;fill-opacity:1;stroke:none;stroke-width:1.05040002;marker:none;visibility:visible;display:inline;overflow:visible;enable-background:accumulate;font-family:Sans;-inkscape-font-specification:Sans"
       d="m 994.5,-158.78125 -29,6.1875 -0.0625,0 -0.0312,0.0312 -27.09375,12.0625 -0.0625,0 -0.0312,0.0312 -24,17.4375 -0.0312,0.0312 -0.0312,0.0312 -19.84375,22.03125 -0.0312,0.0625 -0.0312,0.0312 -14.8125,25.6875 -0.0312,0.03125 -0.0312,0.0625 -9.15625,28.1875 0,0.0625 -0.0312,0.0625 -3.09375,29.46875 0.53125,0.0625 -0.53125,0.0625 3.09375,29.46875 0.0312,0.0625 0,0.03125 9.15625,28.21875 0.0312,0.03125 0.0312,0.0625 14.8125,25.65625 0.0312,0.0625 0.0312,0.03125 19.84375,22.03125 0.0312,0.0625 0.0312,0.03125 24,17.40625 0.0312,0.0312 0.0625,0.0312 27.09375,12.0625 0.0312,0.0312 0.0625,0 29,6.15625 0.0625,0 0.0312,0 29.65625,0 0.062,0 0.031,0 29,-6.15625 0.062,0 0.063,-0.0312 27.0624,-12.0625 0.063,-0.0312 0.031,-0.0312 24,-17.40625 0.031,-0.03125 0.031,-0.0625 19.8437,-22.03125 0.031,-0.03125 0.031,-0.0625 14.8437,-25.65625 0,-0.0625 0.031,-0.03125 9.1562,-28.21875 0.031,-0.03125 0,-0.0625 3.0938,-29.46875 0,-0.0625 0,-0.0625 -3.0938,-29.46875 0,-0.0625 -0.031,-0.0625 -9.1562,-28.1875 -0.031,-0.0625 0,-0.03125 -14.8437,-25.6875 -0.031,-0.0312 -0.031,-0.0625 -19.8437,-22.03125 -0.031,-0.0312 -0.031,-0.0312 -24,-17.4375 -0.031,-0.0312 -0.063,0 -27.0624,-12.0625 -0.063,-0.0312 -0.062,0 -29,-6.1875 -0.031,0 -0.062,0 -29.65625,0 -0.0312,0 -0.0625,0 z m 0.0937,1.0625 29.65625,0 28.7812,6.125 0.094,0.0312 26.9062,11.96875 23.875,17.34375 19.7813,21.9375 0.031,0.0625 0.031,0.0312 14.75,25.59375 9.0938,27.96875 0,0.03125 3.125,29.34375 0,0.0625 0,0.0625 -3.125,29.34375 -9.0938,28 -0.031,0.09375 -14.7188,25.5 -0.031,0.03125 -0.031,0.0625 -19.6875,21.84375 -0.031,0.03125 -0.063,0.0625 -23.7812,17.28125 -0.094,0.0625 -26.9062,11.96875 -0.094,0.0312 -28.9062,6.125 -29.40625,0 -28.90625,-6.125 -0.0937,-0.0312 -26.875,-11.96875 -0.0937,-0.0625 -23.8125,-17.28125 -0.0625,-0.0625 -0.0312,-0.03125 -19.6875,-21.84375 -0.0312,-0.0625 -0.0312,-0.03125 -14.71875,-25.5 -0.0312,-0.09375 -9.09375,-28 -3.09375,-29.34375 0,-0.0625 0,-0.0625 3.09375,-29.34375 0,-0.03125 9.09375,-27.96875 14.75,-25.59375 0.0312,-0.0312 0.0312,-0.0625 19.78125,-21.9375 23.90625,-17.34375 26.875,-11.96875 0.0937,-0.0312 28.78125,-6.125 z"
       id="path56"
       inkscape:connector-curvature="0" />
    <path
       style="font-size:medium;font-style:normal;font-variant:normal;font-weight:normal;font-stretch:normal;text-indent:0;text-align:start;text-decoration:none;line-height:normal;letter-spacing:normal;word-spacing:normal;text-transform:none;direction:ltr;block-progression:tb;writing-mode:lr-tb;text-anchor:start;baseline-shift:baseline;color:#000000;fill:#000000;fill-opacity:1;stroke:none;stroke-width:1.05040002;marker:none;visibility:visible;display:inline;overflow:visible;enable-background:accumulate;font-family:Sans;-inkscape-font-specification:Sans"
       d="m 994.5625,-477.84375 -0.0625,0.0312 -29,6.15625 -0.0625,0 -0.0312,0.0312 -27.09375,12.0625 -0.0625,0 -0.0312,0.0625 -24,17.40625 -0.0312,0.0312 -0.0312,0.0312 L 894.3125,-420 l -0.0312,0.0625 -0.0312,0.0312 -14.8125,25.6875 -0.0312,0.0312 -0.0312,0.0625 -9.15625,28.1875 0,0.0625 -0.0312,0.0625 -3.09375,29.46875 0.53125,0.0625 -0.53125,0.0625 3.09375,29.46875 0.0312,0.0625 0,0.0625 9.15625,28.1875 0.0312,0.0312 0.0312,0.0625 14.8125,25.6875 0.0312,0.0312 0.0312,0.0312 19.84375,22.03125 0.0312,0.0625 0.0312,0.0312 24,17.40625 0.0312,0.0312 0.0625,0.0312 27.09375,12.0625 0.0312,0.0312 0.0625,0 29,6.15625 0.0625,0.0312 0.0312,0 29.65625,0 0.062,0 0.031,-0.0312 29,-6.15625 0.062,0 0.063,-0.0312 27.0624,-12.0625 0.063,-0.0312 0.031,-0.0312 24,-17.40625 0.031,-0.0312 0.031,-0.0625 19.8437,-22.03125 0.031,-0.0312 0.031,-0.0312 14.8437,-25.6875 0,-0.0625 0.031,-0.0312 9.1562,-28.1875 0.031,-0.0625 0,-0.0625 3.0938,-29.46875 0,-0.0625 0,-0.0625 -3.0938,-29.46875 0,-0.0625 -0.031,-0.0625 -9.1562,-28.1875 -0.031,-0.0625 0,-0.0312 -14.8437,-25.6875 -0.031,-0.0312 -0.031,-0.0625 -19.8437,-22.03125 -0.031,-0.0312 -0.031,-0.0312 -24,-17.40625 -0.031,-0.0625 -0.063,0 -27.0624,-12.0625 -0.063,-0.0312 -0.062,0 -29,-6.15625 -0.031,-0.0312 -0.062,0 -29.65625,0 -0.0312,0 z m 0.0312,1.0625 29.65625,0 28.7812,6.125 0.094,0.0312 26.9062,11.96875 23.875,17.34375 19.7813,21.9375 0.031,0.0625 0.031,0.0312 14.75,25.59375 9.0938,27.96875 0,0.0312 3.125,29.34375 0,0.125 -3.125,29.34375 0,0.0312 -9.0938,27.96875 -0.031,0.0937 -14.7188,25.5 -0.031,0.0312 -0.031,0.0625 -19.7813,21.9375 -23.7812,17.28125 -0.094,0.0625 -26.9062,11.96875 -0.094,0.0312 -28.9062,6.125 -29.40625,0 -28.90625,-6.125 -0.0937,-0.0312 -26.875,-11.96875 -0.0937,-0.0625 -23.8125,-17.28125 -19.78125,-21.9375 -0.0312,-0.0625 -0.0312,-0.0312 -14.71875,-25.5 -0.0312,-0.0937 -9.09375,-27.96875 0,-0.0312 -3.09375,-29.34375 0,-0.0625 0,-0.0625 3.09375,-29.34375 0,-0.0312 9.09375,-27.96875 14.75,-25.59375 0.0312,-0.0312 0.0312,-0.0625 19.78125,-21.9375 23.90625,-17.34375 26.875,-11.96875 0.0937,-0.0312 28.78125,-6.125 z"
       id="path58"
       inkscape:connector-curvature="0" />
    <path
       style="font-size:medium;font-style:normal;font-variant:normal;font-weight:normal;font-stretch:normal;text-indent:0;text-align:start;text-decoration:none;line-height:normal;letter-spacing:normal;word-spacing:normal;text-transform:none;direction:ltr;block-progression:tb;writing-mode:lr-tb;text-anchor:start;baseline-shift:baseline;color:#000000;fill:#000000;fill-opacity:1;stroke:none;stroke-width:1.05040002;marker:none;visibility:visible;display:inline;overflow:visible;enable-background:accumulate;font-family:Sans;-inkscape-font-specification:Sans"
       d="m 749.4375,188.25 0,0.53125 0,20.15625 -23.09375,0 -0.53125,0 0,0.53125 0,449.03125 0,0.53125 0.53125,0 23.09375,0 0,19.625 -23.09375,0 -0.53125,0 0,0.53125 0,97.5 0,0.53125 0.53125,0 23.09375,0 0,19.625 -23.09375,0 -0.53125,0 0,0.53125 0,23.625 0.53125,0 0,0.53125 94.53125,0 0.53125,0 0,-0.53125 0,-23.625 0,-0.53125 -0.53125,0 -23.09375,0 0,-19.625 23.09375,0 0.53125,0 0,-0.53125 0,-97.5 0,-0.53125 -0.53125,0 -23.09375,0 0,-19.625 23.09375,0 0.53125,0 0,-0.53125 0,-449.03125 0,-0.53125 -0.53125,0 -23.09375,0 0,-20.15625 0,-0.53125 -0.53125,0 -47.28125,0 -0.53125,0 z m 1.0625,1.0625 46.21875,0 0,20.15625 0,0.53125 0.53125,0 23.09375,0 0,448 -23.09375,0 -0.53125,0 0,0.5 0,20.6875 0,0.53125 0.53125,0 23.09375,0 0,96.4375 -23.09375,0 -0.53125,0 0,0.53125 0,20.6875 0,0.5 0.53125,0 23.09375,0 0,22.59375 -93.46875,0 0,-22.59375 23.09375,0 0.53125,0 0,-0.5 0,-20.6875 0,-0.53125 -0.53125,0 -23.09375,0 0,-96.4375 23.09375,0 0.53125,0 0,-0.53125 0,-20.6875 0,-0.5 -0.53125,0 -23.09375,0 0,-448 23.09375,0 0.53125,0 0,-0.53125 0,-20.15625 z"
       id="path60"
       inkscape:connector-curvature="0" />
    <path
       style="font-size:medium;font-style:normal;font-variant:normal;font-weight:normal;font-stretch:normal;text-indent:0;text-align:start;text-decoration:none;line-height:normal;letter-spacing:normal;word-spacing:normal;text-transform:none;direction:ltr;block-progression:tb;writing-mode:lr-tb;text-anchor:start;baseline-shift:baseline;color:#000000;fill:#000000;fill-opacity:1;stroke:none;stroke-width:1.05040002;marker:none;visibility:visible;display:inline;overflow:visible;enable-background:accumulate;font-family:Sans;-inkscape-font-specification:Sans"
       d="m 762.75,423.125 0,0.53125 0,20.65625 0.53125,0 0,0.53125 20.65625,0 0.53125,0 0,-0.53125 0,-20.65625 0,-0.53125 -0.53125,0 -20.65625,0 -0.53125,0 z m 1.03125,1.0625 19.65625,0 0,19.625 -19.65625,0 0,-19.625 z"
       id="path62"
       inkscape:connector-curvature="0" />
    <path
       style="font-size:medium;font-style:normal;font-variant:normal;font-weight:normal;font-stretch:normal;text-indent:0;text-align:start;text-decoration:none;line-height:normal;letter-spacing:normal;word-spacing:normal;text-transform:none;direction:ltr;block-progression:tb;writing-mode:lr-tb;text-anchor:start;baseline-shift:baseline;color:#000000;fill:#000000;fill-opacity:1;stroke:none;stroke-width:1.05040002;marker:none;visibility:visible;display:inline;overflow:visible;enable-background:accumulate;font-family:Sans;-inkscape-font-specification:Sans"
       d="m 891.25,188.25 0,0.53125 0,20.15625 -23.09375,0 -0.53125,0 0,0.53125 0,449.03125 0,0.53125 0.53125,0 23.09375,0 0,19.625 -23.09375,0 -0.53125,0 0,0.53125 0,97.5 0,0.53125 0.53125,0 23.09375,0 0,19.625 -23.09375,0 -0.53125,0 0,0.53125 0,23.625 0.53125,0 0,0.53125 94.53125,0 0.53125,0 0,-0.53125 0,-23.625 0,-0.53125 -0.53125,0 -23.125,0 0,-19.625 23.125,0 0.53125,0 0,-0.53125 0,-97.5 0,-0.53125 -0.53125,0 -23.125,0 0,-19.625 23.125,0 0.53125,0 0,-0.53125 0,-449.03125 0,-0.53125 -0.53125,0 -23.125,0 0,-20.15625 0,-0.53125 -0.5,0 -47.28125,0 -0.53125,0 z m 1.0625,1.0625 46.21875,0 0,20.15625 0,0.53125 0.53125,0 23.09375,0 0,448 -23.09375,0 -0.53125,0 0,0.5 0,20.6875 0,0.53125 0.53125,0 23.09375,0 0,96.4375 -23.09375,0 -0.53125,0 0,0.53125 0,20.6875 0,0.5 0.53125,0 23.09375,0 0,22.59375 -93.5,0 0,-22.59375 23.125,0 0.53125,0 0,-0.5 0,-20.6875 0,-0.53125 -0.53125,0 -23.125,0 0,-96.4375 23.125,0 0.53125,0 0,-0.53125 0,-20.6875 0,-0.5 -0.53125,0 -23.125,0 0,-448 23.125,0 0.53125,0 0,-0.53125 0,-20.15625 z"
       id="path64"
       inkscape:connector-curvature="0" />
    <path
       style="font-size:medium;font-style:normal;font-variant:normal;font-weight:normal;font-stretch:normal;text-indent:0;text-align:start;text-decoration:none;line-height:normal;letter-spacing:normal;word-spacing:normal;text-transform:none;direction:ltr;block-progression:tb;writing-mode:lr-tb;text-anchor:start;baseline-shift:baseline;color:#000000;fill:#000000;fill-opacity:1;stroke:none;stroke-width:1.05040002;marker:none;visibility:visible;display:inline;overflow:visible;enable-background:accumulate;font-family:Sans;-inkscape-font-specification:Sans"
       d="m 904.5625,423.125 0,0.53125 0,20.65625 0.5,0 0,0.53125 20.6875,0 0.53125,0 0,-0.53125 0,-20.65625 0,-0.53125 -0.53125,0 -20.6875,0 -0.5,0 z m 1.03125,1.0625 19.625,0 0,19.625 -19.625,0 0,-19.625 z"
       id="path66"
       inkscape:connector-curvature="0" />
    <path
       style="font-size:medium;font-style:normal;font-variant:normal;font-weight:normal;font-stretch:normal;text-indent:0;text-align:start;text-decoration:none;line-height:normal;letter-spacing:normal;word-spacing:normal;text-transform:none;direction:ltr;block-progression:tb;writing-mode:lr-tb;text-anchor:start;baseline-shift:baseline;color:#000000;fill:#000000;fill-opacity:1;stroke:none;stroke-width:1.05040002;marker:none;visibility:visible;display:inline;overflow:visible;enable-background:accumulate;font-family:Sans;-inkscape-font-specification:Sans"
       d="m 1033.0625,188.25 0,0.53125 0,20.15625 -23.125,0 -0.5,0 0,0.53125 0,449.03125 0,0.53125 0.5,0 23.125,0 0,19.625 -23.125,0 -0.5,0 0,0.53125 0,97.5 0,0.53125 0.5,0 23.125,0 0,19.625 -23.125,0 -0.5,0 0,0.53125 0,23.625 0.5,0 0,0.53125 94.5625,0 0.5,0 0,-0.53125 0,-23.625 0,-0.53125 -0.5,0 -23.125,0 0,-19.625 23.125,0 0.5,0 0,-0.53125 0,-97.5 0,-0.53125 -0.5,0 -23.125,0 0,-19.625 23.125,0 0.5,0 0,-0.53125 0,-449.03125 0,-0.53125 -0.5,0 -23.125,0 0,-20.15625 0,-0.53125 -0.5312,0 -47.25,0 -0.5313,0 z m 1.0625,1.0625 46.1875,0 0,20.15625 0,0.53125 0.5313,0 23.125,0 0,448 -23.125,0 -0.5313,0 0,0.5 0,20.6875 0,0.53125 0.5313,0 23.125,0 0,96.4375 -23.125,0 -0.5313,0 0,0.53125 0,20.6875 0,0.5 0.5313,0 23.125,0 0,22.59375 -93.5,0 0,-22.59375 23.125,0 0.5312,0 0,-0.5 0,-20.6875 0,-0.53125 -0.5312,0 -23.125,0 0,-96.4375 23.125,0 0.5312,0 0,-0.53125 0,-20.6875 0,-0.5 -0.5312,0 -23.125,0 0,-448 23.125,0 0.5312,0 0,-0.53125 0,-20.15625 z"
       id="path68"
       inkscape:connector-curvature="0" />
    <path
       style="font-size:medium;font-style:normal;font-variant:normal;font-weight:normal;font-stretch:normal;text-indent:0;text-align:start;text-decoration:none;line-height:normal;letter-spacing:normal;word-spacing:normal;text-transform:none;direction:ltr;block-progression:tb;writing-mode:lr-tb;text-anchor:start;baseline-shift:baseline;color:#000000;fill:#000000;fill-opacity:1;stroke:none;stroke-width:1.05040002;marker:none;visibility:visible;display:inline;overflow:visible;enable-background:accumulate;font-family:Sans;-inkscape-font-specification:Sans"
       d="m 1046.3438,423.125 0,0.53125 0,20.65625 0.5312,0 0,0.53125 20.6875,0 0.5313,0 0,-0.53125 0,-20.65625 0,-0.53125 -0.5313,0 -20.6875,0 -0.5312,0 z m 1.0624,1.0625 19.625,0 0,19.625 -19.625,0 0,-19.625 z"
       id="path70"
       inkscape:connector-curvature="0" />
    <path
       style="font-size:medium;font-style:normal;font-variant:normal;font-weight:normal;font-stretch:normal;text-indent:0;text-align:start;text-decoration:none;line-height:normal;letter-spacing:normal;word-spacing:normal;text-transform:none;direction:ltr;block-progression:tb;writing-mode:lr-tb;text-anchor:start;baseline-shift:baseline;color:#000000;fill:#000000;fill-opacity:1;stroke:none;stroke-width:1.05040002;marker:none;visibility:visible;display:inline;overflow:visible;enable-background:accumulate;font-family:Sans;-inkscape-font-specification:Sans"
       d="m -162.09375,171.5625 0,0.5 0,20.15625 -213.65625,0 -0.53125,0 0,0.53125 0,31.96875 -460.34375,0 -0.0312,0 -0.0312,0 -27,2.84375 -0.0625,0 -0.0625,0.0312 -25.84375,8.40625 -0.0625,0 -0.0312,0.0312 -23.53125,13.59375 -0.0625,0.0312 -0.0312,0.0312 -20.1875,18.1875 -0.0625,0.0312 -0.0312,0.0625 -15.96875,21.96875 -0.0312,0.0312 -0.0312,0.0625 -11.03125,24.8125 -0.0312,0.0625 0,0.0625 -5.65625,26.5625 0,0.0625 0,0.0625 0,13.0625 -0.1875,0 -0.53125,0 0,0.53125 0,307.21875 0,0.53125 0.53125,0 0.1875,0 0,13.0625 0,0.0625 0,0.0625 5.65625,26.5625 0,0.0625 0.0312,0.0625 11.03125,24.8125 0.0312,0.0625 0.0312,0.0312 15.96875,22 0.0312,0.0312 0.0625,0.0312 20.1875,18.1875 0.0312,0.0312 0.0625,0.0312 23.53125,13.59375 0.0312,0.0312 0.0625,0 25.84375,8.40625 0.0625,0.0312 0.0625,0 27,2.84375 0.0312,0 0.0312,0 460.34375,0 0,31.96875 0,0.53125 0.53125,0 213.65625,0 0,20.15625 0,0.5 0.53125,0 20.65625,0 0,-0.5 0.53125,0 0,-20.15625 213.65625,0 0.53125,0 0,-0.53125 0,-31.96875 117.65625,0 0.5,0 0,-0.53125 0,-49.6875 43.8125,0 0.53125,0 0,-0.53125 0,-41.375 0,-0.5 -0.53125,0 -43.8125,0 0,-99.40625 43.8125,0 0.53125,0 0,-0.53125 0,-41.34375 0,-0.53125 -0.53125,0 -43.8125,0 0,-99.40625 43.8125,0 0.53125,0 0,-0.53125 0,-41.34375 0,-0.53125 -0.53125,0 -43.8125,0 0,-99.375 43.8125,0 0.53125,0 0,-0.53125 0,-41.375 0,-0.53125 -0.53125,0 -43.8125,0 0,-49.6875 0,-0.53125 -0.5,0 -117.65625,0 0,-31.96875 0,-0.53125 -0.53125,0 -213.65625,0 0,-20.15625 0,-0.5 -0.53125,0 -20.65625,0 -0.53125,0 z m 1.03125,1.03125 19.65625,0 0,20.15625 0,0.53125 0.5,0 213.65625,0 0,31.96875 0,0.53125 0.53125,0 117.65625,0 0,49.6875 0,0.53125 0.53125,0 43.78125,0 0,40.3125 -43.78125,0 -0.53125,0 0,0.53125 0,100.4375 0,0.53125 0.53125,0 43.78125,0 0,40.3125 -43.78125,0 -0.53125,0 0,0.5 0,100.46875 0,0.5 0.53125,0 43.78125,0 0,40.3125 -43.78125,0 -0.53125,0 0,0.53125 0,100.4375 0,0.53125 0.53125,0 43.78125,0 0,40.3125 -43.78125,0 -0.53125,0 0,0.53125 0,49.6875 -117.65625,0 -0.53125,0 0,0.53125 0,31.96875 -213.65625,0 -0.5,0 0,0.53125 0,20.15625 -19.65625,0 0,-20.15625 0,-0.53125 -0.5,0 -213.65625,0 0,-31.96875 0,-0.53125 -0.53125,0 -460.8125,0 -0.0625,0 -26.9375,-2.84375 -0.0312,0 -25.71875,-8.375 -0.0312,0 -23.40625,-13.53125 -20.03125,-18.03125 -0.0312,-0.0312 -0.0625,-0.0625 -15.84375,-21.8125 0,-0.0312 -0.0625,-0.0625 -10.9375,-24.625 0,-0.0312 -0.0312,-0.0625 -5.625,-26.46875 0,-13.5 0,-0.5 -0.53125,0 -0.1875,0 0,-306.1875 0.1875,0 0.53125,0 0,-0.53125 0,-13.5 5.625,-26.46875 0.0312,-0.0625 0,-0.0312 10.9375,-24.625 0.0625,-0.0625 0,-0.0312 15.84375,-21.8125 0.0625,-0.0625 0.0312,-0.0312 L -912.75,250.53125 -889.34375,237 l 0.0312,0 25.71875,-8.375 0.0312,0 26.9375,-2.84375 0.0625,0 460.8125,0 0.53125,0 0,-0.53125 0,-31.96875 213.65625,0 0.5,0 0,-0.53125 0,-20.15625 z"
       id="path72"
       inkscape:connector-curvature="0" />
    <path
       style="font-size:medium;font-style:normal;font-variant:normal;font-weight:normal;font-stretch:normal;text-indent:0;text-align:start;text-decoration:none;line-height:normal;letter-spacing:normal;word-spacing:normal;text-transform:none;direction:ltr;block-progression:tb;writing-mode:lr-tb;text-anchor:start;baseline-shift:baseline;color:#000000;fill:#000000;fill-opacity:1;stroke:none;stroke-width:1.05040002;marker:none;visibility:visible;display:inline;overflow:visible;enable-background:accumulate;font-family:Sans;-inkscape-font-specification:Sans"
       d="m -836.6875,348.8125 -11.03125,1.15625 -0.0625,0 -0.0625,0.0312 -10.5625,3.4375 -0.0625,0 -0.0312,0.0312 -9.625,5.5625 -0.0625,0.0312 -0.0312,0.0312 -8.28125,7.4375 -0.0312,0.0312 -0.0312,0.0625 -6.53125,9 -0.0312,0.0312 -0.0312,0.0625 -4.53125,10.15625 0,0.0312 -0.0312,0.0625 -2.3125,10.875 0,0.0625 0,0.0312 0,11.125 0,0.0625 0,0.0625 2.3125,10.875 0.0312,0.0312 0,0.0625 4.53125,10.15625 0.0312,0.0625 0.0312,0.0312 6.21875,8.5625 -6.21875,8.53125 -0.0312,0.0625 -0.0312,0.0312 -4.53125,10.15625 0,0.0625 -0.0312,0.0625 -2.3125,10.875 0,0.0312 0,0.0625 0,11.125 0,0.0625 0,0.0312 2.3125,10.875 0.0312,0.0625 0,0.0625 4.53125,10.15625 0.0312,0.0312 0.0312,0.0625 6.21875,8.5625 -6.21875,8.53125 -0.0312,0.0625 -0.0312,0.0312 -4.53125,10.15625 0,0.0625 -0.0312,0.0625 -2.3125,10.875 0,0.0312 0,0.0625 0,11.125 0,0.0625 0,0.0312 2.3125,10.875 0.0312,0.0625 0,0.0625 4.53125,10.15625 0.0312,0.0312 0.0312,0.0625 6.21875,8.53125 -6.21875,8.5625 -0.0312,0.0625 -0.0312,0.0312 -4.53125,10.15625 0,0.0625 -0.0312,0.0625 -2.3125,10.84375 0,0.0625 0,0.0625 0,11.125 0,0.0312 0,0.0625 2.3125,10.875 0.0312,0.0625 0,0.0625 4.53125,10.15625 0.0312,0.0312 0.0312,0.0625 6.53125,8.96875 0.0312,0.0625 0.0312,0.0312 8.28125,7.4375 0.0312,0.0312 0.0625,0.0312 9.625,5.5625 0.0312,0.0312 0.0625,0 10.5625,3.4375 0.0625,0.0312 0.0625,0 11.03125,1.15625 0.0625,-0.53125 0.0625,0.53125 11.0625,-1.15625 0.0312,0 0.0625,-0.0312 10.5625,-3.4375 0.0625,0 0.0625,-0.0312 9.625,-5.5625 0.0312,-0.0312 0.0625,-0.0312 8.25,-7.4375 0.0312,-0.0312 0.0312,-0.0625 6.53125,-8.96875 0.0312,-0.0625 0.0312,-0.0312 4.53125,-10.15625 0.0312,-0.0625 0,-0.0625 2.3125,-10.875 0,-0.0625 0,-0.0312 0,-5.03125 0.3125,0 0,-0.53125 0,-212.71875 0,-0.53125 -0.3125,0 0,-5.03125 0,-0.0312 0,-0.0625 -2.3125,-10.875 0,-0.0625 -0.0312,-0.0312 -4.53125,-10.15625 -0.0312,-0.0625 -0.0312,-0.0312 -6.53125,-9 -0.0312,-0.0625 -0.0312,-0.0312 -8.25,-7.4375 -0.0625,-0.0312 -0.0312,-0.0312 -9.625,-5.5625 -0.0625,-0.0312 -0.0625,0 -10.5625,-3.4375 -0.0625,-0.0312 -0.0312,0 -11.0625,-1.15625 -0.0625,0 -0.0625,0 z m 0,1.03125 0.125,0 10.9375,1.1875 10.46875,3.40625 9.4375,5.4375 0.0312,0.0312 0.0625,0.0312 8.09375,7.3125 0,0.0312 0.0625,0.0312 6.40625,8.8125 0,0.0312 0.0625,0.0625 4.4375,9.96875 0,0.0312 0.0312,0.0625 2.28125,10.78125 0,5.4375 0,0.53125 0.28125,0 0,211.65625 -0.28125,0 0,0.53125 0,5.4375 -2.28125,10.78125 -0.0312,0.0625 0,0.0312 L -791,641.5 l -0.0625,0.0625 0,0.0312 -6.40625,8.8125 -8.15625,7.375 -0.0625,0.0312 -0.0312,0.0312 -9.4375,5.4375 -10.5625,3.4375 -10.84375,1.15625 -0.125,0 -10.8125,-1.15625 -10.59375,-3.4375 -9.4375,-5.4375 -0.0312,-0.0312 -0.0625,-0.0312 -8.15625,-7.375 -6.40625,-8.8125 0,-0.0312 -0.0625,-0.0625 -4.4375,-9.96875 0,-0.0312 -0.0312,-0.0625 -2.25,-10.65625 0,-11.125 2.25,-10.65625 0.0312,-0.0625 0,-0.0312 4.4375,-9.96875 0.0625,-0.0625 0,-0.0312 6.375,-8.78125 0.21875,-0.3125 -0.21875,-0.28125 -6.375,-8.78125 0,-0.0312 -0.0625,-0.0625 -4.4375,-9.96875 0,-0.0312 -0.0312,-0.0625 -2.25,-10.65625 0,-11.125 2.25,-10.65625 0.0312,-0.0625 0,-0.0312 4.4375,-9.96875 0.0625,-0.0625 0,-0.0312 6.375,-8.78125 0.21875,-0.28125 -0.21875,-0.3125 -6.375,-8.78125 0,-0.0312 -0.0625,-0.0625 -4.4375,-9.96875 0,-0.0312 -0.0312,-0.0625 -2.25,-10.65625 0,-11.125 2.25,-10.65625 0.0312,-0.0625 0,-0.0312 4.4375,-9.96875 0.0625,-0.0625 0,-0.0312 6.375,-8.75 0.21875,-0.3125 -0.21875,-0.3125 -6.375,-8.78125 0,-0.0312 -0.0625,-0.0625 -4.46875,-10.03125 0,-0.0312 -2.25,-10.65625 0,-11.125 2.25,-10.65625 0.0312,-0.0625 0,-0.0312 4.4375,-9.96875 0.0625,-0.0625 0,-0.0312 6.40625,-8.8125 0.0625,-0.0312 0,-0.0312 8.09375,-7.3125 0.0625,-0.0312 0.0312,-0.0312 9.4375,-5.4375 10.46875,-3.40625 0.0312,0 10.90625,-1.1875 z"
       id="path74"
       inkscape:connector-curvature="0" />
    <path
       style="font-size:medium;font-style:normal;font-variant:normal;font-weight:normal;font-stretch:normal;text-indent:0;text-align:start;text-decoration:none;line-height:normal;letter-spacing:normal;word-spacing:normal;text-transform:none;direction:ltr;block-progression:tb;writing-mode:lr-tb;text-anchor:start;baseline-shift:baseline;color:#000000;fill:#000000;fill-opacity:1;stroke:none;stroke-width:1.05040002;marker:none;visibility:visible;display:inline;overflow:visible;enable-background:accumulate;font-family:Sans;-inkscape-font-specification:Sans"
       d="m -376.28125,498 0,0.53125 0,20.65625 0,0.53125 0.53125,0 449.03125,0 0,-0.53125 0.53125,0 0,-20.65625 0,-0.53125 -0.53125,0 -449.03125,0 -0.53125,0 z m 1.0625,1.03125 447.96875,0 0,19.65625 -447.96875,0 0,-19.65625 z"
       id="path76"
       inkscape:connector-curvature="0" />
    <path
       style="font-size:medium;font-style:normal;font-variant:normal;font-weight:normal;font-stretch:normal;text-indent:0;text-align:start;text-decoration:none;line-height:normal;letter-spacing:normal;word-spacing:normal;text-transform:none;direction:ltr;block-progression:tb;writing-mode:lr-tb;text-anchor:start;baseline-shift:baseline;color:#000000;fill:#000000;fill-opacity:1;stroke:none;stroke-width:1.05040002;marker:none;visibility:visible;display:inline;overflow:visible;enable-background:accumulate;font-family:Sans;-inkscape-font-specification:Sans"
       d="m 1174.875,188.25 0,0.53125 0,20.15625 -23.125,0 -0.5312,0 0,0.53125 0,449.03125 0,0.53125 0.5312,0 23.125,0 0,19.625 -23.125,0 -0.5312,0 0,0.53125 0,97.5 0,0.53125 0.5312,0 23.125,0 0,19.625 -23.125,0 -0.5312,0 0,0.53125 0,23.625 0.5312,0 0,0.53125 94.5312,0 0.5313,0 0,-0.53125 0,-23.625 0,-0.53125 -0.5313,0 -23.0937,0 0,-19.625 23.0937,0 0.5313,0 0,-0.53125 0,-97.5 0,-0.53125 -0.5313,0 -23.0937,0 0,-19.625 23.0937,0 0.5313,0 0,-0.53125 0,-449.03125 0,-0.53125 -0.5313,0 -23.0937,0 0,-20.15625 0,-0.53125 -0.5313,0 -47.2812,0 -0.5,0 z m 1.0312,1.0625 46.2188,0 0,20.15625 0,0.53125 0.5312,0 23.0938,0 0,448 -23.0938,0 -0.5312,0 0,0.5 0,20.6875 0,0.53125 0.5312,0 23.0938,0 0,96.4375 -23.0938,0 -0.5312,0 0,0.53125 0,20.6875 0,0.5 0.5312,0 23.0938,0 0,22.59375 -93.4688,0 0,-22.59375 23.0938,0 0.5312,0 0,-0.5 0,-20.6875 0,-0.53125 -0.5312,0 -23.0938,0 0,-96.4375 23.0938,0 0.5312,0 0,-0.53125 0,-20.6875 0,-0.5 -0.5312,0 -23.0938,0 0,-448 23.0938,0 0.5312,0 0,-0.53125 0,-20.15625 z"
       id="path78"
       inkscape:connector-curvature="0" />
    <path
       style="font-size:medium;font-style:normal;font-variant:normal;font-weight:normal;font-stretch:normal;text-indent:0;text-align:start;text-decoration:none;line-height:normal;letter-spacing:normal;word-spacing:normal;text-transform:none;direction:ltr;block-progression:tb;writing-mode:lr-tb;text-anchor:start;baseline-shift:baseline;color:#000000;fill:#000000;fill-opacity:1;stroke:none;stroke-width:1.05040002;marker:none;visibility:visible;display:inline;overflow:visible;enable-background:accumulate;font-family:Sans;-inkscape-font-specification:Sans"
       d="m 1188.1562,423.125 0,0.53125 0,20.65625 0.5313,0 0,0.53125 20.6875,0 0.5,0 0,-0.53125 0,-20.65625 0,-0.53125 -0.5,0 -20.6875,0 -0.5313,0 z m 1.0626,1.0625 19.625,0 0,19.625 -19.625,0 0,-19.625 z"
       id="path80"
       inkscape:connector-curvature="0" />
    <g
       id="g3103"
       transform="matrix(0,4.8180581,4.8180581,0,-837.59731,275.49907)">
      <path
         id="path3063"
         d="M 12.932,42.346 7.94,56.887 c -0.295,0.858 0.165,1.791 1.022,2.085 l 4.605,1.581 -1.121,3.268 -6.313,-2.166 c -1.68,-0.577 -2.576,-2.407 -2,-4.088 l 6.24,-18.178 c 0.577,-1.68 2.408,-2.575 4.088,-1.998 l 6.313,2.167 -1.148,3.348 -4.605,-1.582 c -0.859,-0.295 -1.794,0.163 -2.089,1.022 z"
         inkscape:connector-curvature="0" />
      <path
         id="path3065"
         d="m 85.792,42.346 4.992,14.541 c 0.294,0.858 -0.164,1.791 -1.022,2.085 l -4.605,1.581 1.119,3.268 6.314,-2.166 c 1.68,-0.577 2.575,-2.407 1.999,-4.088 l -6.24,-18.178 c -0.576,-1.68 -2.408,-2.575 -4.088,-1.998 l -6.313,2.167 1.148,3.348 4.606,-1.582 c 0.86,-0.295 1.795,0.163 2.09,1.022 z"
         inkscape:connector-curvature="0" />
      <g
         id="g3067">
	<path
   id="path3069"
   d="m 46.123,49.234 0.027,0.009 -0.104,0.305 -0.006,0.012 -0.689,2.032 -0.006,0.018 c -0.047,0.165 -0.102,0.336 -0.162,0.51 l -7.986,23.476 -0.077,0.234 -0.116,0.338 c -0.234,0.593 -0.627,1.356 -1.165,1.77 -0.038,0.028 -0.075,0.057 -0.11,0.082 -0.039,0.026 -0.078,0.051 -0.12,0.074 -0.046,0.024 -0.091,0.047 -0.135,0.065 -0.052,0.021 -0.099,0.038 -0.15,0.052 -0.091,0.025 -0.188,0.039 -0.284,0.045 -0.141,0.005 -0.289,-0.02 -0.445,-0.071 l 0.005,-0.005 -0.437,-0.15 -0.004,0.006 -2.089,-0.711 3.134,-9.207 0.008,0.004 3.759,-11.047 -0.013,-0.004 3.023,-8.888 0.014,-0.039 0.097,-0.28 0.024,0.009 c 0.398,-0.773 1.227,-1.214 2.08,-1.142 -0.31,-0.53 -0.559,-1.099 -0.734,-1.7 -0.185,0.017 -0.371,0.028 -0.561,0.028 -3.463,0 -6.268,-2.806 -6.268,-6.268 0,-1.447 0.495,-2.776 1.319,-3.837 l -9.628,-3.275 c -1.683,-0.571 -3.51,0.328 -4.083,2.01 L 11.656,70.693 c -0.573,1.683 0.327,3.51 2.01,4.082 l 21.471,7.303 c 1.683,0.574 3.51,-0.327 4.082,-2.009 L 49.32,50.375 c -1.177,-0.228 -2.253,-0.729 -3.17,-1.431 -0.004,0.097 -0.009,0.193 -0.027,0.29 z M 16.82,72.084 16.63,72.077 16,71.927 v 0.007 c 0,-0.053 -0.094,-0.124 -0.203,-0.217 -0.072,-0.063 -0.044,-0.134 -0.101,-0.21 -0.032,-0.042 -0.011,-0.085 -0.038,-0.133 -0.023,-0.042 -0.021,-0.086 -0.041,-0.135 -0.02,-0.044 -0.023,-0.087 -0.039,-0.132 -0.012,-0.043 -0.018,-0.087 -0.03,-0.132 -0.172,-0.657 -0.009,-1.5 0.171,-2.113 l 0.117,-0.338 0.085,-0.233 8.114,-23.432 c 0.061,-0.173 0.122,-0.342 0.187,-0.501 l 0.006,-0.018 0.702,-2.028 0.004,-0.012 0.105,-0.304 0.027,0.01 c 0.48,-0.925 1.579,-1.381 2.594,-1.028 1.016,0.352 1.599,1.389 1.406,2.414 l 0.024,0.008 -0.097,0.28 -0.014,0.04 -3.072,8.87 -0.012,-0.004 -3.818,11.025 0.01,0.004 -3.183,9.19 -2.084,-0.721 z m 3.815,1.315 9.973,-29.134 0.005,-0.017 c 0.035,-0.1 0.077,-0.194 0.126,-0.282 0.477,-0.929 1.574,-1.389 2.591,-1.043 1.019,0.346 1.771,1.38 1.583,2.405 -0.017,0.105 0.087,0.21 0.087,0.314 0,0.004 0,0.004 0,0.006 L 24.863,74.782 20.635,73.399 z m 5.679,1.95 9.973,-29.134 0.006,-0.015 c 0.035,-0.101 0.077,-0.196 0.124,-0.284 0.479,-0.929 1.575,-1.388 2.593,-1.042 1.018,0.345 1.43,1.38 1.242,2.404 -0.016,0.104 -0.252,0.21 -0.252,0.314 0,0.003 0,0.003 0,0.006 l -9.797,29.136 -3.889,-1.385 z"
   inkscape:connector-curvature="0" />

	<path
   id="path3071"
   d="M 87.069,70.693 74.482,33.688 C 73.909,32.006 72.084,31.107 70.4,31.678 l -9.666,3.288 c 1.197,0.994 1.961,2.493 1.961,4.17 0,2.664 -1.926,4.873 -4.459,5.326 -0.265,1.267 -0.847,2.416 -1.655,3.366 0.009,0.016 0.021,0.028 0.028,0.044 l 0.024,-0.009 0.096,0.28 0.013,0.039 3.024,8.888 -0.011,0.004 3.757,11.047 0.009,-0.004 3.134,9.207 -2.09,0.711 -0.003,-0.006 -0.438,0.15 0.004,0.005 c -0.154,0.052 -0.303,0.076 -0.442,0.071 -0.099,-0.006 -0.194,-0.02 -0.285,-0.045 -0.052,-0.014 -0.1,-0.03 -0.149,-0.052 -0.045,-0.019 -0.09,-0.041 -0.137,-0.065 -0.041,-0.023 -0.08,-0.048 -0.119,-0.074 -0.035,-0.025 -0.073,-0.054 -0.109,-0.082 -0.54,-0.413 -0.932,-1.177 -1.166,-1.77 L 61.604,75.829 61.528,75.594 53.542,52.118 C 53.481,51.944 53.426,51.773 53.38,51.608 L 53.374,51.59 52.905,50.209 c -0.677,0.196 -1.39,0.307 -2.129,0.307 -0.467,0 -0.922,-0.048 -1.366,-0.129 l 10.097,29.681 c 0.572,1.682 2.4,2.583 4.081,2.009 L 85.06,74.774 c 1.682,-0.571 2.581,-2.398 2.009,-4.081 z M 68.159,76.733 58,47.598 c 0,-0.003 0,-0.003 0,-0.006 0,-0.104 0.127,-0.21 0.109,-0.313 -0.188,-1.024 0.494,-2.06 1.512,-2.404 1.018,-0.346 2.16,0.113 2.639,1.042 0.047,0.088 0.113,0.184 0.148,0.284 l 0.017,0.015 9.884,29.134 -4.15,1.383 z m 5.868,-1.951 -9.971,-29.135 c 0,-0.002 0,-0.002 -0.002,-0.006 -0.035,-0.104 -0.063,-0.209 -0.076,-0.313 -0.189,-1.025 0.398,-2.06 1.416,-2.405 1.018,-0.345 2.114,0.114 2.592,1.043 0.048,0.088 0.089,0.183 0.125,0.282 l 0.005,0.017 9.973,29.134 -4.062,1.383 z m 9.143,-3.806 c -0.012,0.045 -0.024,0.089 -0.036,0.132 -0.016,0.045 -0.031,0.088 -0.05,0.132 -0.021,0.049 -0.043,0.093 -0.066,0.135 -0.027,0.048 -0.054,0.091 -0.087,0.133 -0.056,0.076 -0.292,0.147 -0.366,0.21 C 82.459,71.81 82,71.881 82,71.934 v -0.007 l -0.268,0.15 0.087,0.007 -2.042,0.723 -3.161,-9.19 0.019,-0.004 -3.813,-11.025 -0.009,0.004 -3.071,-8.87 -0.014,-0.04 -0.096,-0.28 0.024,-0.008 c -0.191,-1.025 0.391,-2.063 1.407,-2.414 1.014,-0.353 2.112,0.104 2.594,1.028 l 0.028,-0.01 0.104,0.304 0.004,0.012 0.703,2.028 0.005,0.018 c 0.066,0.159 0.127,0.328 0.187,0.501 l 8.113,23.432 0.085,0.233 0.115,0.338 c 0.181,0.612 0.342,1.454 0.169,2.112 z"
   inkscape:connector-curvature="0" />

	<path
   id="path3073"
   d="m 49.319,50.375 c 0.029,0.006 0.061,0.008 0.09,0.014 l -0.047,-0.14 -0.043,0.126 z"
   inkscape:connector-curvature="0"
   style="fill:#000000" />

</g>
      <path
         id="path3075"
         d="m 46.98,41.065 v -0.003 c -0.023,-0.708 -0.602,-1.271 -1.313,-1.271 -0.285,0 -0.55,0.088 -0.761,0.242 -0.004,0 -0.004,0.003 -0.004,0.003 -0.031,0.022 -0.064,0.046 -0.094,0.074 0.007,-0.017 0.014,-0.035 0.02,-0.052 -0.016,0.025 -0.029,0.049 -0.045,0.07 v 0.004 c -0.084,0.132 -0.18,0.258 -0.286,0.37 l -0.003,0.003 c -0.432,0.447 -1.036,0.728 -1.709,0.728 -1.307,0 -2.364,-1.059 -2.364,-2.368 0,-0.37 0.083,-0.721 0.241,-1.032 v -0.004 c 0.061,-0.132 0.136,-0.254 0.226,-0.37 0.058,-0.142 0.086,-0.292 0.086,-0.453 0,-0.692 -0.559,-1.252 -1.251,-1.252 -0.27,0 -0.521,0.084 -0.724,0.229 -0.003,0 -0.003,0.003 -0.003,0.003 -0.199,0.265 -0.373,0.547 -0.516,0.854 v 0.003 c -0.292,0.614 -0.453,1.3 -0.453,2.023 0,2.629 2.13,4.762 4.758,4.762 0.566,0 1.11,-0.1 1.615,-0.287 0.02,-0.002 0.039,-0.013 0.059,-0.02 0.569,-0.212 1.088,-0.533 1.527,-0.936 0.376,-0.341 0.698,-0.74 0.946,-1.185 0.016,-0.028 0.035,-0.061 0.051,-0.093 v -0.003 c 0,-0.012 0,-0.026 -0.003,-0.039 z"
         inkscape:connector-curvature="0" />
      <path
         id="path3077"
         d="m 60.704,37.697 c 0,0 0,0 -0.002,-0.004 -0.21,-0.337 -0.474,-0.633 -0.782,-0.881 -0.126,-0.045 -0.265,-0.07 -0.406,-0.07 -0.672,0 -1.219,0.546 -1.219,1.223 0,0.212 0.055,0.415 0.154,0.589 0.145,0.103 0.267,0.237 0.351,0.395 v 0.004 c 0.091,0.164 0.142,0.354 0.142,0.553 0,0.646 -0.521,1.168 -1.168,1.168 -0.286,0 -0.55,-0.104 -0.753,-0.277 -0.056,-0.044 -0.103,-0.093 -0.147,-0.146 -0.02,-0.023 -0.039,-0.049 -0.055,-0.074 0.007,0.013 0.01,0.025 0.012,0.039 -0.225,-0.181 -0.507,-0.287 -0.816,-0.287 -0.283,0 -0.547,0.087 -0.762,0.238 -0.004,0 -0.004,0.003 -0.004,0.003 -0.289,0.209 -0.492,0.53 -0.541,0.897 v 0.007 c 0.325,0.634 0.836,1.151 1.465,1.479 0.328,0.177 0.688,0.299 1.07,0.357 0.174,0.025 0.352,0.038 0.531,0.038 0.406,0 0.791,-0.07 1.152,-0.196 0.006,-0.003 0.012,-0.007 0.02,-0.009 1.324,-0.476 2.271,-1.748 2.271,-3.237 0,-0.663 -0.188,-1.281 -0.513,-1.809 z"
         inkscape:connector-curvature="0" />
      <path
         id="path3079"
         d="m 57.215,41.789 c -0.059,-0.55 -0.191,-1.077 -0.385,-1.575 -0.225,-0.181 -0.507,-0.287 -0.816,-0.287 -0.283,0 -0.547,0.087 -0.762,0.238 -0.004,0 -0.004,0.003 -0.004,0.003 -0.289,0.209 -0.492,0.53 -0.541,0.897 v 0.007 c -0.009,0.055 -0.012,0.112 -0.012,0.17 0,0.02 0,0.036 0.003,0.055 0.007,0.017 0.009,0.035 0.017,0.052 0.041,0.146 0.077,0.293 0.103,0.447 0.042,0.231 0.064,0.471 0.064,0.714 0,2.252 -1.827,4.082 -4.083,4.082 -2.207,0 -4.002,-1.753 -4.08,-3.937 -0.002,-0.049 -0.002,-0.098 -0.002,-0.146 0,-0.234 0.02,-0.466 0.058,-0.688 0.035,-0.216 0.091,-0.422 0.158,-0.621 0.016,-0.045 0.032,-0.089 0.048,-0.135 v -0.003 c -0.023,-0.708 -0.602,-1.271 -1.313,-1.271 -0.285,0 -0.55,0.088 -0.761,0.242 -0.004,0 -0.004,0.003 -0.004,0.003 -0.031,0.022 -0.064,0.046 -0.094,0.074 -0.184,0.454 -0.314,0.933 -0.389,1.432 -0.048,0.314 -0.074,0.64 -0.074,0.968 0,0.277 0.016,0.548 0.051,0.811 0,0.007 0,0.013 0.004,0.02 0.055,0.45 0.161,0.886 0.306,1.297 0.878,2.519 3.274,4.327 6.093,4.327 3.407,0 6.195,-2.635 6.438,-5.978 0.004,-0.025 0.006,-0.052 0.006,-0.077 0.012,-0.132 0.014,-0.265 0.014,-0.399 -0.002,-0.244 -0.016,-0.484 -0.043,-0.722 z"
         inkscape:connector-curvature="0" />
      <path
         id="path3081"
         d="m 37.113,24.579 c -0.01,-0.013 -0.02,-0.025 -0.032,-0.039 -0.425,-0.578 -0.984,-1.052 -1.628,-1.386 -0.653,-0.338 -1.396,-0.528 -2.182,-0.528 -0.62,0 -1.215,0.119 -1.759,0.338 -0.657,0.261 -1.241,0.663 -1.718,1.172 -0.258,0.276 -0.482,0.585 -0.672,0.917 -0.387,0.688 -0.609,1.486 -0.609,2.332 v 0.035 c 0.268,0.157 0.576,0.248 0.908,0.248 0.54,0 1.025,-0.238 1.352,-0.618 0.09,-0.103 0.166,-0.219 0.23,-0.341 0.032,-0.119 0.08,-0.238 0.135,-0.347 0.332,-0.692 0.988,-1.197 1.773,-1.313 0.116,-0.022 0.238,-0.032 0.359,-0.032 0.867,0 1.622,0.467 2.034,1.158 0.032,0.045 0.055,0.09 0.077,0.139 0.004,0.007 0.006,0.01 0.01,0.016 v 0.004 c 0.025,0.038 0.055,0.076 0.087,0.112 0.115,0.135 0.257,0.244 0.421,0.321 0.164,0.078 0.348,0.119 0.541,0.119 0.084,0 0.167,-0.01 0.244,-0.025 0.573,-0.116 1.004,-0.624 1.004,-1.229 v -0.019 c -0.147,-0.371 -0.34,-0.718 -0.575,-1.034 z m -7.318,-0.443 c -0.258,0.276 -0.482,0.585 -0.672,0.917 0.781,0.421 1.379,1.136 1.65,1.997 0.09,-0.103 0.166,-0.219 0.23,-0.341 0.032,-0.119 0.08,-0.238 0.135,-0.347 0.046,-0.151 0.068,-0.313 0.068,-0.479 0.001,-0.857 -0.603,-1.573 -1.411,-1.747 z"
         inkscape:connector-curvature="0" />
      <path
         id="path3083"
         d="m 55.271,25.789 c -0.014,-0.579 -0.129,-1.133 -0.336,-1.641 -0.045,-0.122 -0.1,-0.245 -0.16,-0.36 -0.566,-1.139 -1.576,-2.018 -2.806,-2.41 -0.46,-0.147 -0.946,-0.229 -1.454,-0.229 -2.629,0 -4.758,2.13 -4.758,4.759 0,2.628 2.129,4.758 4.758,4.758 0.25,0 0.498,-0.02 0.74,-0.058 0.512,-0.081 0.994,-0.242 1.438,-0.47 0.164,-0.216 0.258,-0.486 0.258,-0.779 0,-0.72 -0.585,-1.306 -1.307,-1.306 -0.051,0 -0.106,0.003 -0.153,0.01 -0.154,0.071 -0.319,0.125 -0.489,0.161 -0.158,0.035 -0.318,0.051 -0.486,0.051 -1.307,0 -2.367,-1.062 -2.367,-2.367 0,-1.307 1.061,-2.368 2.367,-2.368 1.152,0 2.115,0.827 2.323,1.917 0.028,0.146 0.046,0.296 0.046,0.451 0,0.028 0,0.061 -0.008,0.09 0.09,0.39 0.305,0.73 0.602,0.979 0.313,0.264 0.718,0.424 1.162,0.424 0.141,0 0.279,-0.016 0.411,-0.048 0.146,-0.454 0.224,-0.939 0.224,-1.444 -0.001,-0.04 -0.001,-0.082 -0.005,-0.12 z"
         inkscape:connector-curvature="0" />
      <path
         id="path3085"
         d="m 73.147,25.59 c -0.631,-1.886 -2.413,-3.246 -4.511,-3.246 -1.599,0 -3.01,0.788 -3.869,1.997 -0.56,0.778 -0.889,1.731 -0.889,2.764 0,1.464 0.66,2.773 1.699,3.646 0.051,0.044 0.105,0.087 0.16,0.128 0.168,0.129 0.344,0.248 0.531,0.354 0.1,0.025 0.21,0.042 0.318,0.042 0.683,0 1.236,-0.555 1.236,-1.232 0,-0.354 -0.152,-0.676 -0.39,-0.901 -0.104,-0.058 -0.2,-0.125 -0.289,-0.202 -0.534,-0.431 -0.876,-1.094 -0.876,-1.834 0,-1.31 1.062,-2.367 2.367,-2.367 1.307,0 2.368,1.058 2.368,2.367 0,0.241 -0.035,0.477 -0.103,0.695 -0.039,0.125 -0.091,0.244 -0.148,0.36 -0.021,0.09 -0.035,0.187 -0.035,0.286 0,0.212 0.056,0.409 0.145,0.583 0.003,0.002 0.003,0.002 0.003,0.002 0.21,0.387 0.615,0.647 1.084,0.647 0.371,0 0.705,-0.164 0.931,-0.422 0.116,-0.226 0.213,-0.464 0.292,-0.711 0,-0.01 0.004,-0.016 0.008,-0.022 0,0 0,0 0,-0.003 0,0 0,-0.004 0,-0.007 0.006,-0.019 0.009,-0.039 0.016,-0.055 0.132,-0.428 0.198,-0.885 0.198,-1.354 0.002,-0.531 -0.083,-1.04 -0.246,-1.515 z"
         inkscape:connector-curvature="0" />
      <path
         id="path3087"
         d="m 58.703,22.061 c -0.145,-1.77 -1.624,-3.16 -3.428,-3.16 -1.568,0 -2.887,1.047 -3.306,2.478 -0.091,0.306 -0.139,0.631 -0.139,0.966 0,1.017 0.438,1.93 1.136,2.558 0.3,0.271 0.646,0.488 1.026,0.64 0.396,0.161 0.827,0.248 1.278,0.248 h 0.004 c 0.41,0 0.806,-0.074 1.172,-0.206 1.322,-0.479 2.269,-1.747 2.269,-3.239 10e-4,-0.099 -0.002,-0.192 -0.012,-0.285 z m -3.428,-0.885 c 0.646,0 1.165,0.524 1.165,1.168 0,0.264 -0.083,0.502 -0.229,0.695 -0.136,0.189 -0.328,0.334 -0.554,0.411 -0.12,0.042 -0.249,0.064 -0.382,0.064 -0.646,0 -1.17,-0.524 -1.17,-1.171 0,-0.643 0.524,-1.167 1.17,-1.167 z"
         inkscape:connector-curvature="0" />
      <path
         id="path3089"
         d="m 74.302,25.39 c -0.405,0 -0.795,0.071 -1.154,0.2 -0.924,0.328 -1.666,1.042 -2.033,1.949 -0.164,0.398 -0.253,0.836 -0.253,1.296 0,0.065 0.002,0.13 0.002,0.194 0.003,0.002 0.003,0.002 0.003,0.002 0.21,0.387 0.615,0.647 1.084,0.647 0.371,0 0.705,-0.164 0.931,-0.422 0.119,-0.139 0.209,-0.302 0.257,-0.486 0.004,-0.077 0.017,-0.153 0.035,-0.225 0,-0.01 0.004,-0.016 0.008,-0.022 0,0 0,0 0,-0.003 0,0 0,-0.004 0,-0.007 0.006,-0.019 0.009,-0.039 0.016,-0.055 0.158,-0.46 0.595,-0.791 1.105,-0.791 0.647,0 1.168,0.521 1.168,1.167 0,0.435 -0.238,0.817 -0.596,1.018 -0.089,0.051 -0.183,0.09 -0.285,0.115 h -0.004 c -0.365,0.206 -0.61,0.599 -0.61,1.049 0,0.602 0.444,1.104 1.023,1.19 0.411,-0.084 0.794,-0.241 1.139,-0.46 h 0.003 c 0.965,-0.611 1.605,-1.686 1.605,-2.912 -10e-4,-1.9 -1.543,-3.444 -3.444,-3.444 z"
         inkscape:connector-curvature="0" />
      <path
         id="path3091"
         d="m 64.768,24.341 c -1.181,-1.447 -2.982,-2.37 -5,-2.37 -0.363,0 -0.717,0.028 -1.064,0.09 -0.91,0.147 -1.756,0.489 -2.492,0.979 -0.193,0.128 -0.378,0.263 -0.554,0.411 -0.162,0.132 -0.315,0.273 -0.46,0.418 -0.092,0.09 -0.178,0.184 -0.262,0.28 -0.373,0.418 -0.691,0.888 -0.942,1.393 -0.224,0.45 -0.398,0.93 -0.515,1.436 0.313,0.264 0.718,0.424 1.162,0.424 0.141,0 0.279,-0.016 0.411,-0.048 0.413,-0.097 0.772,-0.334 1.021,-0.66 0.076,-0.167 0.164,-0.324 0.263,-0.479 0.728,-1.126 1.991,-1.873 3.433,-1.873 2.254,0 4.084,1.828 4.084,4.083 0,0.91 -0.297,1.746 -0.799,2.422 -0.097,0.136 -0.207,0.261 -0.318,0.38 -0.104,0.184 -0.162,0.396 -0.162,0.621 0,0.582 0.38,1.071 0.906,1.232 0.123,0.038 0.25,0.058 0.385,0.058 0.129,0 0.255,-0.02 0.373,-0.055 0.34,-0.325 0.646,-0.688 0.907,-1.084 0.226,-0.338 0.418,-0.698 0.579,-1.078 0.007,-0.012 0.01,-0.025 0.016,-0.042 0.26,-0.627 0.425,-1.306 0.471,-2.014 0.008,-0.148 0.016,-0.293 0.016,-0.44 -0.002,-1.552 -0.549,-2.971 -1.459,-4.084 z"
         inkscape:connector-curvature="0" />
      <path
         id="path3093"
         d="m 41.711,18.293 c -3.015,0 -5.546,2.069 -6.258,4.861 -0.132,0.512 -0.199,1.046 -0.199,1.595 0,0.137 0.004,0.274 0.016,0.405 v 0.011 c 0.026,0.438 0.098,0.861 0.207,1.271 0,0.003 0.003,0.007 0.003,0.01 0.115,0.135 0.257,0.244 0.421,0.321 0.164,0.078 0.348,0.119 0.541,0.119 0.084,0 0.167,-0.01 0.244,-0.025 0.573,-0.116 1.004,-0.624 1.004,-1.229 v -0.019 c 0.006,0.013 0.01,0.025 0.016,0.038 v -0.045 c 0,-0.045 -0.003,-0.09 -0.01,-0.136 -0.009,-0.041 -0.016,-0.083 -0.022,-0.125 0,-0.003 0,-0.007 -0.003,-0.009 -0.029,-0.19 -0.041,-0.387 -0.041,-0.587 0,-2.254 1.826,-4.081 4.082,-4.081 2.254,0 4.082,1.827 4.082,4.081 0,2.127 -1.625,3.874 -3.699,4.064 -0.126,0.013 -0.254,0.019 -0.383,0.019 h -0.08 c -0.548,0.126 -0.953,0.615 -0.953,1.2 0,0.547 0.354,1.01 0.847,1.171 0.062,0.003 0.125,0.003 0.187,0.003 0.222,0 0.443,-0.013 0.659,-0.031 0.003,0 0.003,0 0.003,0 3.253,-0.335 5.791,-3.086 5.791,-6.426 -0.002,-3.564 -2.891,-6.456 -6.455,-6.456 z"
         inkscape:connector-curvature="0" />
      <path
         id="path3095"
         d="m 23.54,27.299 c 0,0.405 0.07,0.794 0.199,1.155 0.328,0.923 1.042,1.665 1.95,2.032 0.398,0.165 0.836,0.254 1.296,0.254 0.064,0 0.128,-0.003 0.192,-0.003 0.004,-0.002 0.004,-0.002 0.004,-0.002 0.387,-0.21 0.646,-0.616 0.646,-1.085 0,-0.37 -0.164,-0.705 -0.421,-0.93 -0.14,-0.118 -0.303,-0.209 -0.486,-0.258 -0.077,-0.003 -0.153,-0.016 -0.226,-0.035 -0.009,0 -0.016,-0.003 -0.022,-0.006 0,0 0,0 -0.003,0 0,0 -0.004,0 -0.007,0 -0.019,-0.007 -0.038,-0.01 -0.054,-0.017 -0.461,-0.157 -0.792,-0.596 -0.792,-1.106 0,-0.646 0.521,-1.168 1.168,-1.168 0.435,0 0.817,0.238 1.017,0.596 0.051,0.09 0.09,0.184 0.115,0.286 v 0.002 c 0.207,0.367 0.599,0.612 1.049,0.612 0.602,0 1.104,-0.443 1.191,-1.023 -0.084,-0.412 -0.242,-0.795 -0.461,-1.139 v -0.003 c -0.611,-0.965 -1.686,-1.605 -2.911,-1.605 -1.9,0 -3.444,1.541 -3.444,3.443 z"
         inkscape:connector-curvature="0" />
    </g>
  </g>
</svg>
